Maname-Regular.ufo
<glyph name="two" format="2">
	<advance width="523"/>
	<unicode hex="0032"/>
	<outline>
		<contour>
			<point x="56" y="0" type="line"/>
			<point x="466" y="0" type="line"/>
			<point x="473" y="145" type="line"/>
			<point x="410" y="138" type="line"/>
			<point x="405" y="116"/>
			<point x="398" y="69"/>
			<point x="338" y="68" type="curve" smooth="yes"/>
			<point x="156" y="66" type="line"/>
			<point x="147" y="69" type="line"/>
			<point x="147" y="183"/>
			<point x="453" y="224"/>
			<point x="453" y="419" type="curve" smooth="yes"/>
			<point x="453" y="539"/>
			<point x="370" y="587"/>
			<point x="276" y="587" type="curve" smooth="yes"/>
			<point x="195" y="587"/>
			<point x="133" y="564"/>
			<point x="83" y="530" type="curve"/>
			<point x="80" y="524"/>
			<point x="78" y="516"/>
			<point x="78" y="508" type="curve" smooth="yes"/>
			<point x="78" y="478"/>
			<point x="98" y="438"/>
			<point x="116" y="421" type="curve"/>
			<point x="133" y="453"/>
			<point x="186" y="529"/>
			<point x="264" y="529" type="curve" smooth="yes"/>
			<point x="328" y="529"/>
			<point x="359" y="478"/>
			<point x="359" y="419" type="curve" smooth="yes"/>
			<point x="359" y="260"/>
			<point x="56" y="205"/>
			<point x="56" y="38" type="curve" smooth="yes"/>
		</contour>
	</outline>
</glyph>
<glyph name="A" format="2">
	<advance width="640"/>
	<unicode hex="0041"/>
	<outline>
		<contour>
			<point x="23" y="0" type="line"/>
			<point x="263" y="0" type="line"/>
			<point x="255" y="39" type="line"/>
			<point x="251" y="39" type="line" smooth="yes"/>
			<point x="222" y="39"/>
			<point x="179" y="40"/>
			<point x="179" y="87" type="curve" smooth="yes"/>
			<point x="179" y="115"/>
			<point x="184" y="130"/>
			<point x="338" y="612" type="curve"/>
			<point x="306" y="572" type="line"/>
			<point x="346" y="415" type="line"/>
			<point x="418" y="227"/>
			<point x="461" y="98"/>
			<point x="461" y="80" type="curve" smooth="yes"/>
			<point x="461" y="49"/>
			<point x="432" y="44"/>
			<point x="385" y="44" type="curve"/>
			<point x="392" y="0" type="line"/>
			<point x="630" y="0" type="line"/>
			<point x="623" y="38" type="line"/>
			<point x="570" y="38"/>
			<point x="554" y="80"/>
			<point x="541" y="116" type="curve" smooth="yes"/>
			<point x="363" y="624" type="line"/>
			<point x="333" y="614"/>
			<point x="301" y="604"/>
			<point x="271" y="600" type="curve"/>
			<point x="104" y="105" type="line" smooth="yes"/>
			<point x="91" y="66"/>
			<point x="61" y="50"/>
			<point x="15" y="47" type="curve"/>
		</contour>
		<contour>
			<point x="197" y="214" type="line"/>
			<point x="449" y="216" type="line"/>
			<point x="449" y="275" type="line"/>
			<point x="197" y="269" type="line"/>
		</contour>
	</outline>
</glyph>
<glyph name="S" format="2">
	<advance width="469"/>
	<unicode hex="0053"/>
	<outline>
		<contour>
			<point x="203" y="-10" type="curve" smooth="yes"/>
			<point x="385" y="-10"/>
			<point x="420" y="87"/>
			<point x="420" y="162" type="curve" smooth="yes"/>
			<point x="420" y="266"/>
			<point x="332" y="313"/>
			<point x="260" y="363" type="curve" smooth="yes"/>
			<point x="242" y="375" type="line" smooth="yes"/>
			<point x="186" y="413"/>
			<point x="149" y="458"/>
			<point x="149" y="505" type="curve" smooth="yes"/>
			<point x="149" y="544"/>
			<point x="172" y="575"/>
			<point x="235" y="575" type="curve" smooth="yes"/>
			<point x="311" y="575"/>
			<point x="346" y="511"/>
			<point x="355" y="493" type="curve" smooth="yes"/>
			<point x="297" y="609" type="line"/>
			<point x="318" y="561"/>
			<point x="333" y="505"/>
			<point x="333" y="468" type="curve"/>
			<point x="404" y="460" type="line"/>
			<point x="407" y="481"/>
			<point x="410" y="514"/>
			<point x="410" y="547" type="curve" smooth="yes"/>
			<point x="410" y="566"/>
			<point x="409" y="584"/>
			<point x="407" y="598" type="curve"/>
			<point x="379" y="612"/>
			<point x="303" y="623"/>
			<point x="249" y="623" type="curve" smooth="yes"/>
			<point x="118" y="623"/>
			<point x="63" y="546"/>
			<point x="63" y="475" type="curve" smooth="yes"/>
			<point x="63" y="401"/>
			<point x="112" y="346"/>
			<point x="174" y="304" type="curve" smooth="yes"/>
			<point x="205" y="283" type="line" smooth="yes"/>
			<point x="263" y="243"/>
			<point x="326" y="213"/>
			<point x="326" y="146" type="curve" smooth="yes"/>
			<point x="326" y="98"/>
			<point x="293" y="45"/>
			<point x="218" y="45" type="curve" smooth="yes"/>
			<point x="162" y="45"/>
			<point x="132" y="85"/>
			<point x="112" y="114" type="curve"/>
			<point x="112" y="82"/>
			<point x="116" y="47"/>
			<point x="162" y="36" type="curve"/>
			<point x="132" y="70"/>
			<point x="127" y="130"/>
			<point x="127" y="152" type="curve"/>
			<point x="58" y="160" type="line"/>
			<point x="52" y="121"/>
			<point x="50" y="89"/>
			<point x="50" y="65" type="curve" smooth="yes"/>
			<point x="50" y="39"/>
			<point x="51" y="25"/>
			<point x="52" y="13" type="curve"/>
			<point x="60" y="9"/>
			<point x="121" y="-10"/>
		</contour>
	</outline>
</glyph>
<glyph name="Y" format="2">
	<advance width="571"/>
	<unicode hex="0059"/>
	<outline>
		<contour>
			<point x="247" y="231" type="curve"/>
			<point x="273" y="239"/>
			<point x="303" y="246"/>
			<point x="326" y="248" type="curve"/>
			<point x="349" y="301"/>
			<point x="400" y="388"/>
			<point x="482" y="510" type="curve" smooth="yes"/>
			<point x="507" y="547"/>
			<point x="527" y="571"/>
			<point x="573" y="573" type="curve"/>
			<point x="565" y="618" type="line"/>
			<point x="525" y="616"/>
			<point x="486" y="615"/>
			<point x="447" y="615" type="curve" smooth="yes"/>
			<point x="412" y="615"/>
			<point x="376" y="616"/>
			<point x="341" y="618" type="curve"/>
			<point x="348" y="569" type="line"/>
			<point x="390" y="569"/>
			<point x="419" y="561"/>
			<point x="419" y="535" type="curve" smooth="yes"/>
			<point x="419" y="529"/>
			<point x="416" y="518"/>
			<point x="411" y="507" type="curve" smooth="yes"/>
			<point x="374" y="427"/>
			<point x="341" y="366"/>
			<point x="293" y="310" type="curve"/>
			<point x="264" y="376" type="line"/>
			<point x="236" y="426"/>
			<point x="211" y="478"/>
			<point x="194" y="516" type="curve" smooth="yes"/>
			<point x="189" y="528"/>
			<point x="186" y="537"/>
			<point x="186" y="545" type="curve" smooth="yes"/>
			<point x="186" y="564"/>
			<point x="206" y="572"/>
			<point x="248" y="576" type="curve"/>
			<point x="237" y="618" type="line"/>
			<point x="190" y="616"/>
			<point x="159" y="615"/>
			<point x="119" y="615" type="curve" smooth="yes"/>
			<point x="83" y="615"/>
			<point x="48" y="616"/>
			<point x="8" y="618" type="curve"/>
			<point x="14" y="573" type="line"/>
			<point x="50" y="573"/>
			<point x="81" y="562"/>
			<point x="107" y="514" type="curve" smooth="yes"/>
			<point x="185" y="370"/>
			<point x="215" y="310"/>
		</contour>
		<contour>
			<point x="160" y="0" type="line"/>
			<point x="420" y="0" type="line"/>
			<point x="410" y="51" type="line"/>
			<point x="404" y="51" type="line" smooth="yes"/>
			<point x="358" y="51"/>
			<point x="346" y="63"/>
			<point x="339" y="94" type="curve" smooth="yes"/>
			<point x="334" y="116"/>
			<point x="328" y="145"/>
			<point x="328" y="189" type="curve" smooth="yes"/>
			<point x="328" y="218"/>
			<point x="330" y="253"/>
			<point x="337" y="296" type="curve"/>
			<point x="236" y="287" type="line"/>
			<point x="242" y="233"/>
			<point x="245" y="197"/>
			<point x="245" y="168" type="curve" smooth="yes"/>
			<point x="245" y="146"/>
			<point x="243" y="129"/>
			<point x="241" y="112" type="curve" smooth="yes"/>
			<point x="237" y="78"/>
			<point x="224" y="51"/>
			<point x="185" y="51" type="curve" smooth="yes"/>
			<point x="154" y="51" type="line"/>
		</contour>
	</outline>
</glyph>
<glyph name="backslash" format="2">
	<advance width="462"/>
	<unicode hex="005C"/>
	<outline>
		<contour>
			<point x="332" y="-62" type="curve"/>
			<point x="406" y="-62" type="line"/>
			<point x="286" y="175"/>
			<point x="182" y="412"/>
			<point x="85" y="648" type="curve"/>
			<point x="7" y="651" type="line"/>
			<point x="71" y="521"/>
			<point x="237" y="167"/>
		</contour>
	</outline>
</glyph>
<glyph name="macronbelowcomb" format="2">
	<advance width="292"/>
	<unicode hex="0331"/>
	<outline>
		<contour>
			<point x="23" y="-88" type="line"/>
			<point x="306" y="-88" type="line"/>
			<point x="299" y="-31" type="line"/>
			<point x="15" y="-31" type="line"/>
		</contour>
	</outline>
</glyph>
<glyph name="sinU" format="2">
	<advance width="600"/>
	<unicode hex="0D8B"/>
	<outline>
		<contour>
			<point x="391" y="-213" type="curve" smooth="yes"/>
			<point x="532" y="-213"/>
			<point x="590" y="-152"/>
			<point x="615" y="-125" type="curve"/>
			<point x="615" y="-109"/>
			<point x="610" y="-91"/>
			<point x="601" y="-87" type="curve"/>
			<point x="571" y="-108"/>
			<point x="499" y="-127"/>
			<point x="408" y="-127" type="curve" smooth="yes"/>
			<point x="218" y="-127"/>
			<point x="86" y="-57"/>
			<point x="86" y="62" type="curve" smooth="yes"/>
			<point x="86" y="223"/>
			<point x="232" y="258"/>
			<point x="343" y="258" type="curve" smooth="yes"/>
			<point x="365" y="258"/>
			<point x="461" y="257"/>
			<point x="486" y="253" type="curve"/>
			<point x="504" y="270" type="line"/>
			<point x="506" y="280"/>
			<point x="506" y="291"/>
			<point x="506" y="301" type="curve" smooth="yes"/>
			<point x="506" y="393"/>
			<point x="449" y="484"/>
			<point x="349" y="484" type="curve" smooth="yes"/>
			<point x="277" y="484"/>
			<point x="220" y="449"/>
			<point x="220" y="394" type="curve" smooth="yes"/>
			<point x="220" y="364"/>
			<point x="244" y="351"/>
			<point x="267" y="351" type="curve" smooth="yes"/>
			<point x="270" y="351"/>
			<point x="274" y="351"/>
			<point x="277" y="352" type="curve"/>
			<point x="288" y="401"/>
			<point x="308" y="447"/>
			<point x="368" y="447" type="curve" smooth="yes"/>
			<point x="419" y="447"/>
			<point x="450" y="400"/>
			<point x="450" y="347" type="curve" smooth="yes"/>
			<point x="450" y="333"/>
			<point x="447" y="319"/>
			<point x="443" y="305" type="curve"/>
			<point x="464" y="322" type="line"/>
			<point x="455" y="325"/>
			<point x="421" y="333"/>
			<point x="347" y="333" type="curve" smooth="yes"/>
			<point x="331" y="333" type="line" smooth="yes"/>
			<point x="207" y="333"/>
			<point x="45" y="249"/>
			<point x="45" y="49" type="curve" smooth="yes"/>
			<point x="45" y="-91"/>
			<point x="143" y="-213"/>
		</contour>
	</outline>
</glyph>
<glyph name="sinO" format="2">
	<advance width="643"/>
	<unicode hex="0D94"/>
	<outline>
		<contour>
			<point x="434" y="-15" type="curve" smooth="yes"/>
			<point x="564" y="-15"/>
			<point x="623" y="130"/>
			<point x="623" y="275" type="curve" smooth="yes"/>
			<point x="623" y="450"/>
			<point x="543" y="614"/>
			<point x="293" y="614" type="curve" smooth="yes"/>
			<point x="208" y="614"/>
			<point x="132" y="593"/>
			<point x="85" y="558" type="curve"/>
			<point x="78" y="544"/>
			<point x="80" y="505"/>
			<point x="87" y="497" type="curve"/>
			<point x="130" y="524"/>
			<point x="204" y="547"/>
			<point x="296" y="547" type="curve" smooth="yes"/>
			<point x="486" y="547"/>
			<point x="580" y="461"/>
			<point x="580" y="291" type="curve" smooth="yes"/>
			<point x="580" y="184"/>
			<point x="536" y="72"/>
			<point x="425" y="72" type="curve" smooth="yes"/>
			<point x="373" y="72"/>
			<point x="332" y="102"/>
			<point x="332" y="149" type="curve" smooth="yes"/>
			<point x="332" y="154"/>
			<point x="332" y="159"/>
			<point x="333" y="164" type="curve"/>
			<point x="313" y="159" type="line"/>
			<point x="299" y="104"/>
			<point x="265" y="70"/>
			<point x="204" y="70" type="curve" smooth="yes"/>
			<point x="113" y="70"/>
			<point x="65" y="128"/>
			<point x="65" y="213" type="curve" smooth="yes"/>
			<point x="65" y="305"/>
			<point x="137" y="335"/>
			<point x="164" y="338" type="curve"/>
			<point x="155" y="366" type="line"/>
			<point x="155" y="363"/>
			<point x="143" y="177"/>
			<point x="330" y="177" type="curve" smooth="yes"/>
			<point x="428" y="177"/>
			<point x="477" y="239"/>
			<point x="477" y="322" type="curve" smooth="yes"/>
			<point x="477" y="401"/>
			<point x="420" y="465"/>
			<point x="349" y="465" type="curve" smooth="yes"/>
			<point x="275" y="465"/>
			<point x="247" y="415"/>
			<point x="247" y="368" type="curve" smooth="yes"/>
			<point x="247" y="319"/>
			<point x="280" y="287"/>
			<point x="327" y="287" type="curve" smooth="yes"/>
			<point x="376" y="287"/>
			<point x="414" y="321"/>
			<point x="414" y="377" type="curve" smooth="yes"/>
			<point x="414" y="390"/>
			<point x="412" y="406"/>
			<point x="406" y="423" type="curve"/>
			<point x="392" y="426" type="line"/>
			<point x="388" y="347"/>
			<point x="350" y="335"/>
			<point x="326" y="335" type="curve" smooth="yes"/>
			<point x="307" y="335"/>
			<point x="286" y="343"/>
			<point x="286" y="365" type="curve" smooth="yes"/>
			<point x="286" y="388"/>
			<point x="311" y="415"/>
			<point x="357" y="415" type="curve" smooth="yes"/>
			<point x="407" y="415"/>
			<point x="444" y="386"/>
			<point x="444" y="337" type="curve" smooth="yes"/>
			<point x="444" y="269"/>
			<point x="399" y="239"/>
			<point x="334" y="239" type="curve" smooth="yes"/>
			<point x="219" y="239"/>
			<point x="186" y="322"/>
			<point x="186" y="369" type="curve" smooth="yes"/>
			<point x="186" y="376"/>
			<point x="186" y="383"/>
			<point x="188" y="388" type="curve"/>
			<point x="182" y="396"/>
			<point x="173" y="404"/>
			<point x="166" y="407" type="curve"/>
			<point x="104" y="395"/>
			<point x="28" y="326"/>
			<point x="28" y="199" type="curve" smooth="yes"/>
			<point x="28" y="102"/>
			<point x="80" y="-14"/>
			<point x="203" y="-14" type="curve" smooth="yes"/>
			<point x="281" y="-14"/>
			<point x="314" y="39"/>
			<point x="323" y="78" type="curve" smooth="yes"/>
			<point x="323" y="79"/>
			<point x="313" y="78"/>
			<point x="314" y="79" type="curve"/>
			<point x="313" y="38"/>
			<point x="353" y="-15"/>
		</contour>
	</outline>
</glyph>
<glyph name="sinCha" format="2">
	<advance width="620"/>
	<unicode hex="0DA1"/>
	<anchor x="569" y="196" name="_si_MaU"/>
	<outline>
		<contour>
			<point x="300" y="-20" type="curve" smooth="yes"/>
			<point x="469" y="-20"/>
			<point x="580" y="72"/>
			<point x="580" y="190" type="curve" smooth="yes"/>
			<point x="580" y="275"/>
			<point x="523" y="321"/>
			<point x="435" y="321" type="curve" smooth="yes"/>
			<point x="406" y="321"/>
			<point x="382" y="316"/>
			<point x="360" y="305" type="curve"/>
			<point x="347" y="296" type="line"/>
			<point x="368" y="301" type="line"/>
			<point x="368" y="360"/>
			<point x="403" y="403"/>
			<point x="451" y="403" type="curve" smooth="yes"/>
			<point x="492" y="403"/>
			<point x="531" y="372"/>
			<point x="531" y="316" type="curve" smooth="yes"/>
			<point x="531" y="266"/>
			<point x="500" y="201"/>
			<point x="437" y="201" type="curve" smooth="yes"/>
			<point x="364" y="201"/>
			<point x="368" y="287"/>
			<point x="368" y="317" type="curve"/>
			<point x="357" y="330" type="line"/>
			<point x="362" y="359"/>
			<point x="375" y="411"/>
			<point x="394" y="453" type="curve" smooth="yes"/>
			<point x="446" y="570"/>
			<point x="549" y="665"/>
			<point x="549" y="665" type="curve"/>
			<point x="545" y="683"/>
			<point x="518" y="702"/>
			<point x="504" y="706" type="curve"/>
			<point x="504" y="706"/>
			<point x="421" y="617"/>
			<point x="367" y="489" type="curve" smooth="yes"/>
			<point x="332" y="406"/>
			<point x="323" y="338"/>
			<point x="323" y="299" type="curve" smooth="yes"/>
			<point x="323" y="218"/>
			<point x="363" y="156"/>
			<point x="431" y="156" type="curve" smooth="yes"/>
			<point x="520" y="156"/>
			<point x="568" y="260"/>
			<point x="568" y="335" type="curve" smooth="yes"/>
			<point x="568" y="405"/>
			<point x="527" y="454"/>
			<point x="469" y="454" type="curve" smooth="yes"/>
			<point x="388" y="454"/>
			<point x="328" y="359"/>
			<point x="328" y="278" type="curve" smooth="yes"/>
			<point x="328" y="270"/>
			<point x="328" y="263"/>
			<point x="329" y="256" type="curve"/>
			<point x="344" y="248" type="line"/>
			<point x="376" y="259"/>
			<point x="410" y="272"/>
			<point x="449" y="272" type="curve" smooth="yes"/>
			<point x="499" y="272"/>
			<point x="542" y="251"/>
			<point x="542" y="200" type="curve" smooth="yes"/>
			<point x="542" y="127"/>
			<point x="455" y="60"/>
			<point x="303" y="60" type="curve" smooth="yes"/>
			<point x="164" y="60"/>
			<point x="84" y="116"/>
			<point x="84" y="180" type="curve" smooth="yes"/>
			<point x="84" y="231"/>
			<point x="136" y="260"/>
			<point x="223" y="260" type="curve" smooth="yes"/>
			<point x="239" y="260"/>
			<point x="262" y="259"/>
			<point x="284" y="256" type="curve"/>
			<point x="295" y="267" type="line"/>
			<point x="299" y="284"/>
			<point x="301" y="304"/>
			<point x="301" y="324" type="curve" smooth="yes"/>
			<point x="301" y="387"/>
			<point x="276" y="454"/>
			<point x="186" y="454" type="curve" smooth="yes"/>
			<point x="122" y="454"/>
			<point x="84" y="421"/>
			<point x="84" y="380" type="curve" smooth="yes"/>
			<point x="84" y="345"/>
			<point x="111" y="332"/>
			<point x="137" y="330" type="curve"/>
			<point x="145" y="361"/>
			<point x="175" y="403"/>
			<point x="217" y="403" type="curve" smooth="yes"/>
			<point x="251" y="403"/>
			<point x="266" y="379"/>
			<point x="266" y="348" type="curve" smooth="yes"/>
			<point x="266" y="315"/>
			<point x="245" y="295"/>
			<point x="235" y="286" type="curve"/>
			<point x="272" y="316" type="line"/>
			<point x="261" y="317"/>
			<point x="249" y="318"/>
			<point x="238" y="318" type="curve" smooth="yes"/>
			<point x="142" y="318"/>
			<point x="45" y="266"/>
			<point x="45" y="165" type="curve" smooth="yes"/>
			<point x="45" y="66"/>
			<point x="136" y="-20"/>
		</contour>
	</outline>
</glyph>
<glyph name="sinDha" format="2">
	<advance width="656"/>
	<unicode hex="0DB0"/>
	<outline>
		<contour>
			<point x="447" y="-16" type="curve" smooth="yes"/>
			<point x="559" y="-16"/>
			<point x="612" y="116"/>
			<point x="612" y="267" type="curve" smooth="yes"/>
			<point x="612" y="459"/>
			<point x="504" y="597"/>
			<point x="292" y="597" type="curve" smooth="yes"/>
			<point x="192" y="597"/>
			<point x="130" y="577"/>
			<point x="98" y="554" type="curve"/>
			<point x="89" y="539"/>
			<point x="84" y="517"/>
			<point x="84" y="499" type="curve" smooth="yes"/>
			<point x="84" y="491"/>
			<point x="85" y="484"/>
			<point x="87" y="479" type="curve"/>
			<point x="119" y="499"/>
			<point x="170" y="525"/>
			<point x="287" y="525" type="curve" smooth="yes"/>
			<point x="420" y="525"/>
			<point x="566" y="473"/>
			<point x="566" y="284" type="curve" smooth="yes"/>
			<point x="566" y="151"/>
			<point x="518" y="65"/>
			<point x="438" y="65" type="curve" smooth="yes"/>
			<point x="396" y="65"/>
			<point x="345" y="79"/>
			<point x="345" y="149" type="curve"/>
			<point x="346" y="158" type="line"/>
			<point x="327" y="154" type="line"/>
			<point x="309" y="108"/>
			<point x="280" y="69"/>
			<point x="211" y="69" type="curve" smooth="yes"/>
			<point x="140" y="69"/>
			<point x="82" y="111"/>
			<point x="82" y="192" type="curve" smooth="yes"/>
			<point x="82" y="262"/>
			<point x="137" y="311"/>
			<point x="255" y="311" type="curve" smooth="yes"/>
			<point x="279" y="311"/>
			<point x="305" y="308"/>
			<point x="332" y="302" type="curve"/>
			<point x="343" y="315" type="line"/>
			<point x="341" y="337"/>
			<point x="333" y="363"/>
			<point x="323" y="382" type="curve"/>
			<point x="312" y="383"/>
			<point x="300" y="384"/>
			<point x="287" y="384" type="curve" smooth="yes"/>
			<point x="148" y="384"/>
			<point x="44" y="309"/>
			<point x="44" y="172" type="curve" smooth="yes"/>
			<point x="44" y="50"/>
			<point x="118" y="-15"/>
			<point x="206" y="-15" type="curve" smooth="yes"/>
			<point x="292" y="-15"/>
			<point x="328" y="48"/>
			<point x="333" y="83" type="curve"/>
			<point x="325" y="105" type="line"/>
			<point x="324" y="99"/>
			<point x="323" y="93"/>
			<point x="323" y="85" type="curve" smooth="yes"/>
			<point x="323" y="29"/>
			<point x="372" y="-16"/>
		</contour>
	</outline>
</glyph>
<glyph name="sinMatraAae" format="2">
	<advance width="371"/>
	<unicode hex="0DD1"/>
	<outline>
		<contour>
			<point x="212" y="-133" type="curve" smooth="yes"/>
			<point x="282" y="-133"/>
			<point x="328" y="-82"/>
			<point x="342" y="-56" type="curve"/>
			<point x="344" y="-47"/>
			<point x="336" y="-24"/>
			<point x="330" y="-21" type="curve"/>
			<point x="306" y="-43"/>
			<point x="261" y="-61"/>
			<point x="217" y="-61" type="curve" smooth="yes"/>
			<point x="166" y="-61"/>
			<point x="122" y="-27"/>
			<point x="122" y="42" type="curve" smooth="yes"/>
			<point x="122" y="104"/>
			<point x="158" y="143"/>
			<point x="221" y="158" type="curve"/>
			<point x="227" y="163" type="line"/>
			<point x="198" y="206" type="line"/>
			<point x="186" y="204"/>
			<point x="191" y="210"/>
			<point x="188" y="200" type="curve" smooth="yes"/>
			<point x="187" y="198"/>
			<point x="185" y="199"/>
			<point x="181" y="198" type="curve"/>
			<point x="120" y="161"/>
			<point x="80" y="110"/>
			<point x="80" y="23" type="curve" smooth="yes"/>
			<point x="80" y="-69"/>
			<point x="130" y="-133"/>
		</contour>
		<contour>
			<point x="227" y="163" type="line"/>
			<point x="230" y="171"/>
			<point x="234" y="193"/>
			<point x="232" y="203" type="curve"/>
			<point x="214" y="207"/>
			<point x="173" y="208"/>
			<point x="131" y="216" type="curve"/>
			<point x="205" y="259" type="line"/>
			<point x="208" y="269"/>
			<point x="210" y="288"/>
			<point x="210" y="303" type="curve" smooth="yes"/>
			<point x="210" y="308"/>
			<point x="210" y="313"/>
			<point x="209" y="317" type="curve"/>
			<point x="150" y="319"/>
			<point x="86" y="320"/>
			<point x="23" y="323" type="curve"/>
			<point x="19" y="318"/>
			<point x="17" y="305"/>
			<point x="17" y="292" type="curve" smooth="yes"/>
			<point x="17" y="282"/>
			<point x="18" y="273"/>
			<point x="21" y="268" type="curve"/>
			<point x="162" y="281" type="line"/>
			<point x="125" y="264"/>
			<point x="74" y="235"/>
			<point x="41" y="223" type="curve"/>
			<point x="41" y="214"/>
			<point x="40" y="204"/>
			<point x="43" y="195" type="curve"/>
			<point x="76" y="192"/>
			<point x="127" y="185"/>
			<point x="152" y="179" type="curve" smooth="yes"/>
		</contour>
	</outline>
</glyph>
<glyph name="onelith-sinhala" format="2">
	<advance width="637"/>
	<unicode hex="0DE7"/>
	<outline>
		<contour>
			<point x="254" y="-16" type="curve" smooth="yes"/>
			<point x="367" y="-16"/>
			<point x="452" y="62"/>
			<point x="452" y="165" type="curve" smooth="yes"/>
			<point x="452" y="251"/>
			<point x="392" y="312"/>
			<point x="308" y="312" type="curve" smooth="yes"/>
			<point x="240" y="312"/>
			<point x="192" y="272"/>
			<point x="192" y="214" type="curve" smooth="yes"/>
			<point x="192" y="165"/>
			<point x="226" y="133"/>
			<point x="276" y="133" type="curve" smooth="yes"/>
			<point x="319" y="133"/>
			<point x="350" y="165"/>
			<point x="350" y="210" type="curve" smooth="yes"/>
			<point x="350" y="234"/>
			<point x="330" y="265"/>
			<point x="308" y="276" type="curve"/>
			<point x="285" y="270" type="line"/>
			<point x="303" y="266"/>
			<point x="317" y="245"/>
			<point x="317" y="222" type="curve" smooth="yes"/>
			<point x="317" y="199"/>
			<point x="296" y="182"/>
			<point x="267" y="182" type="curve" smooth="yes"/>
			<point x="239" y="182"/>
			<point x="218" y="198"/>
			<point x="218" y="219" type="curve" smooth="yes"/>
			<point x="218" y="245"/>
			<point x="246" y="261"/>
			<point x="291" y="261" type="curve" smooth="yes"/>
			<point x="364" y="261"/>
			<point x="415" y="225"/>
			<point x="415" y="173" type="curve" smooth="yes"/>
			<point x="415" y="104"/>
			<point x="349" y="57"/>
			<point x="253" y="57" type="curve" smooth="yes"/>
			<point x="148" y="57"/>
			<point x="68" y="121"/>
			<point x="68" y="201" type="curve" smooth="yes"/>
			<point x="68" y="319"/>
			<point x="201" y="386"/>
			<point x="299" y="386" type="curve" smooth="yes"/>
			<point x="484" y="386"/>
			<point x="551" y="290"/>
			<point x="551" y="202" type="curve" smooth="yes"/>
			<point x="551" y="133"/>
			<point x="520" y="72"/>
			<point x="476" y="22" type="curve"/>
			<point x="488" y="1"/>
			<point x="516" y="-12"/>
			<point x="538" y="-12" type="curve"/>
			<point x="569" y="42"/>
			<point x="587" y="136"/>
			<point x="587" y="208" type="curve" smooth="yes"/>
			<point x="587" y="376"/>
			<point x="464" y="465"/>
			<point x="315" y="465" type="curve" smooth="yes"/>
			<point x="150" y="465"/>
			<point x="32" y="348"/>
			<point x="32" y="195" type="curve" smooth="yes"/>
			<point x="32" y="78"/>
			<point x="130" y="-16"/>
		</contour>
	</outline>
</glyph>
<glyph name="twolith-sinhala" format="2">
	<advance width="939"/>
	<unicode hex="0DE8"/>
	<outline>
		<contour>
			<point x="673" y="-13" type="curve"/>
			<point x="834" y="-11"/>
			<point x="889" y="133"/>
			<point x="889" y="239" type="curve" smooth="yes"/>
			<point x="889" y="387"/>
			<point x="801" y="439"/>
			<point x="740" y="439" type="curve" smooth="yes"/>
			<point x="651" y="439"/>
			<point x="593" y="371"/>
			<point x="576" y="264" type="curve" smooth="yes"/>
			<point x="555" y="133" type="line"/>
			<point x="576" y="98" type="line"/>
			<point x="579" y="114"/>
			<point x="598" y="209"/>
			<point x="603" y="228" type="curve" smooth="yes"/>
			<point x="626" y="316"/>
			<point x="670" y="346"/>
			<point x="723" y="346" type="curve" smooth="yes"/>
			<point x="785" y="346"/>
			<point x="852" y="308"/>
			<point x="852" y="228" type="curve" smooth="yes"/>
			<point x="852" y="172"/>
			<point x="818" y="61"/>
			<point x="649" y="64" type="curve"/>
			<point x="643" y="54" type="line"/>
			<point x="647" y="31"/>
			<point x="663" y="-1"/>
		</contour>
		<component base="onelith-sinhala"/>
	</outline>
</glyph>
<glyph name="sixlith-sinhala" format="2">
	<advance width="719"/>
	<unicode hex="0DEC"/>
	<outline>
		<contour>
			<point x="243" y="-14" type="curve" smooth="yes"/>
			<point x="269" y="-14"/>
			<point x="292" y="-11"/>
			<point x="317" y="0" type="curve"/>
			<point x="319" y="6"/>
			<point x="320" y="18"/>
			<point x="320" y="30" type="curve" smooth="yes"/>
			<point x="320" y="47"/>
			<point x="318" y="66"/>
			<point x="316" y="76" type="curve"/>
			<point x="285" y="63"/>
			<point x="252" y="63"/>
			<point x="230" y="64" type="curve" smooth="yes"/>
			<point x="153" y="67"/>
			<point x="64" y="116"/>
			<point x="64" y="202" type="curve" smooth="yes"/>
			<point x="64" y="291"/>
			<point x="143" y="370"/>
			<point x="348" y="370" type="curve" smooth="yes"/>
			<point x="531" y="370"/>
			<point x="621" y="270"/>
			<point x="621" y="173" type="curve" smooth="yes"/>
			<point x="621" y="76"/>
			<point x="562" y="48"/>
			<point x="500" y="48" type="curve" smooth="yes"/>
			<point x="454" y="48"/>
			<point x="420" y="81"/>
			<point x="420" y="115" type="curve" smooth="yes"/>
			<point x="420" y="135"/>
			<point x="439" y="154"/>
			<point x="477" y="154" type="curve" smooth="yes"/>
			<point x="515" y="154"/>
			<point x="547" y="124"/>
			<point x="547" y="72" type="curve" smooth="yes"/>
			<point x="547" y="57"/>
			<point x="544" y="46"/>
			<point x="529" y="30" type="curve"/>
			<point x="564" y="47" type="line"/>
			<point x="574" y="63"/>
			<point x="579" y="82"/>
			<point x="579" y="107" type="curve" smooth="yes"/>
			<point x="579" y="154"/>
			<point x="545" y="212"/>
			<point x="485" y="212" type="curve" smooth="yes"/>
			<point x="420" y="212"/>
			<point x="389" y="168"/>
			<point x="390" y="117" type="curve" smooth="yes"/>
			<point x="391" y="35"/>
			<point x="442" y="-6"/>
			<point x="498" y="-6" type="curve" smooth="yes"/>
			<point x="596" y="-6"/>
			<point x="657" y="68"/>
			<point x="657" y="181" type="curve" smooth="yes"/>
			<point x="657" y="336"/>
			<point x="553" y="462"/>
			<point x="352" y="462" type="curve" smooth="yes"/>
			<point x="153" y="462"/>
			<point x="30" y="347"/>
			<point x="30" y="214" type="curve" smooth="yes"/>
			<point x="30" y="81"/>
			<point x="113" y="-14"/>
		</contour>
	</outline>
</glyph>
<glyph name="won" format="2">
	<advance width="971"/>
	<unicode hex="20A9"/>
	<outline>
		<contour>
			<point x="33" y="233" type="line"/>
			<point x="943" y="233" type="line"/>
			<point x="939" y="252"/>
			<point x="936" y="273"/>
			<point x="932" y="294" type="curve"/>
			<point x="795" y="286"/>
			<point x="169" y="287"/>
			<point x="28" y="294" type="curve"/>
		</contour>
		<component base="W"/>
		<contour>
			<point x="33" y="339" type="line"/>
			<point x="943" y="339" type="line"/>
			<point x="939" y="357"/>
			<point x="936" y="378"/>
			<point x="932" y="399" type="curve"/>
			<point x="795" y="391"/>
			<point x="169" y="392"/>
			<point x="28" y="399" type="curve"/>
		</contour>
	</outline>
</glyph>
<glyph name="guarani" format="2">
	<advance width="637"/>
	<unicode hex="20B2"/>
	<outline>
		<contour>
			<point x="268" y="-100" type="line"/>
			<point x="336" y="-95" type="line"/>
			<point x="334" y="-73"/>
			<point x="333" y="-26"/>
			<point x="333" y="35" type="curve" smooth="yes"/>
			<point x="333" y="242"/>
			<point x="342" y="607"/>
			<point x="343" y="694" type="curve"/>
			<point x="325" y="691"/>
			<point x="297" y="688"/>
			<point x="277" y="685" type="curve"/>
			<point x="281" y="573"/>
		</contour>
		<component base="G"/>
	</outline>
</glyph>
<glyph name="fiveArchaic-sinhala" format="2">
	<advance width="1087"/>
	<unicode hex="111E5"/>
	<outline>
		<contour>
			<point x="628" y="0" type="line"/>
			<point x="628" y="104" type="line" smooth="yes"/>
			<point x="628" y="182"/>
			<point x="671" y="204"/>
			<point x="702" y="204" type="curve" smooth="yes"/>
			<point x="739" y="204"/>
			<point x="783" y="182"/>
			<point x="783" y="104" type="curve" smooth="yes"/>
			<point x="783" y="0" type="line"/>
			<point x="811" y="0" type="line"/>
			<point x="811" y="166" type="line" smooth="yes"/>
			<point x="811" y="218"/>
			<point x="769" y="273"/>
			<point x="702" y="273" type="curve" smooth="yes"/>
			<point x="659" y="273"/>
			<point x="601" y="232"/>
			<point x="604" y="168" type="curve" smooth="yes"/>
			<point x="612" y="18" type="line"/>
		</contour>
		<component base="sinOnelith" xOffset="-2"/>
		<contour>
			<point x="1057" y="1" type="curve"/>
			<point x="1057" y="26" type="line"/>
			<point x="993" y="9"/>
			<point x="975" y="31"/>
			<point x="957" y="82" type="curve" smooth="yes"/>
			<point x="931" y="156"/>
			<point x="930" y="210"/>
			<point x="864" y="210" type="curve" smooth="yes"/>
			<point x="818" y="210"/>
			<point x="785" y="167"/>
			<point x="797" y="87" type="curve" smooth="yes"/>
			<point x="801" y="60" type="line"/>
			<point x="811" y="30" type="line"/>
			<point x="811" y="67" type="line" smooth="yes"/>
			<point x="811" y="115"/>
			<point x="829" y="146"/>
			<point x="864" y="146" type="curve" smooth="yes"/>
			<point x="906" y="146"/>
			<point x="920" y="115"/>
			<point x="937" y="65" type="curve" smooth="yes"/>
			<point x="957" y="5"/>
			<point x="995" y="-17"/>
		</contour>
	</outline>
</glyph>
<glyph name="sevenArchaic-sinhala" format="2">
	<advance width="689"/>
	<unicode hex="111E7"/>
	<guideline x="11" y="422" angle="0"/>
	<outline>
		<contour>
			<point x="425" y="-190" type="curve" smooth="yes"/>
			<point x="502" y="-190" type="line"/>
			<point x="502" y="137" type="line" smooth="yes"/>
			<point x="502" y="299"/>
			<point x="440" y="421"/>
			<point x="265" y="421" type="curve" smooth="yes"/>
			<point x="90" y="421"/>
			<point x="32" y="289"/>
			<point x="32" y="197" type="curve" smooth="yes"/>
			<point x="32" y="97"/>
			<point x="79" y="-1"/>
			<point x="178" y="-1" type="curve" smooth="yes"/>
			<point x="190" y="-1"/>
			<point x="202" y="1"/>
			<point x="215" y="6" type="curve"/>
			<point x="215" y="31" type="line"/>
			<point x="204" y="27"/>
			<point x="194" y="25"/>
			<point x="183" y="25" type="curve" smooth="yes"/>
			<point x="114" y="25"/>
			<point x="66" y="86"/>
			<point x="66" y="181" type="curve" smooth="yes"/>
			<point x="66" y="255"/>
			<point x="111" y="352"/>
			<point x="265" y="352" type="curve" smooth="yes"/>
			<point x="419" y="352"/>
			<point x="469" y="255"/>
			<point x="468" y="131" type="curve" smooth="yes"/>
			<point x="468" y="-164" type="line"/>
			<point x="444" y="-164" type="line" smooth="yes"/>
			<point x="347" y="-164"/>
			<point x="334" y="-103"/>
			<point x="334" y="-79" type="curve" smooth="yes"/>
			<point x="334" y="-41"/>
			<point x="356" y="9"/>
			<point x="421" y="9" type="curve" smooth="yes"/>
			<point x="439" y="9"/>
			<point x="456" y="9"/>
			<point x="474" y="4" type="curve" smooth="yes"/>
			<point x="491" y="-2" type="line" smooth="yes"/>
			<point x="534" y="-15"/>
			<point x="563" y="-34"/>
			<point x="606" y="-80" type="curve"/>
			<point x="622" y="-80" type="line"/>
			<point x="622" y="424" type="line"/>
			<point x="594" y="424" type="line"/>
			<point x="594" y="-50" type="line"/>
			<point x="615" y="-57" type="line"/>
			<point x="585" y="-25"/>
			<point x="547" y="6"/>
			<point x="491" y="24" type="curve" smooth="yes"/>
			<point x="478" y="29" type="line"/>
			<point x="460" y="33"/>
			<point x="439" y="34"/>
			<point x="421" y="34" type="curve" smooth="yes"/>
			<point x="334" y="34"/>
			<point x="274" y="-22"/>
			<point x="274" y="-79" type="curve" smooth="yes"/>
			<point x="274" y="-132"/>
			<point x="314" y="-190"/>
		</contour>
	</outline>
</glyph>
<glyph name="eightArchaic-sinhala" format="2">
	<advance width="754"/>
	<unicode hex="111E8"/>
	<outline>
		<contour>
			<point x="724" y="-191" type="curve"/>
			<point x="724" y="-158" type="line"/>
			<point x="641" y="-80"/>
			<point x="492" y="14"/>
			<point x="352" y="14" type="curve" smooth="yes"/>
			<point x="236" y="14"/>
			<point x="112" y="-5"/>
			<point x="112" y="-87" type="curve" smooth="yes"/>
			<point x="112" y="-170"/>
			<point x="227" y="-190"/>
			<point x="352" y="-190" type="curve" smooth="yes"/>
			<point x="485" y="-190"/>
			<point x="724" y="-110"/>
			<point x="724" y="196" type="curve" smooth="yes"/>
			<point x="724" y="302"/>
			<point x="688" y="421"/>
			<point x="592" y="421" type="curve" smooth="yes"/>
			<point x="528" y="421"/>
			<point x="482" y="372"/>
			<point x="482" y="303" type="curve"/>
			<point x="492" y="303" type="line"/>
			<point x="492" y="376"/>
			<point x="450" y="421"/>
			<point x="382" y="421" type="curve" smooth="yes"/>
			<point x="314" y="421"/>
			<point x="272" y="376"/>
			<point x="272" y="303" type="curve"/>
			<point x="282" y="303" type="line"/>
			<point x="282" y="374"/>
			<point x="236" y="421"/>
			<point x="167" y="421" type="curve" smooth="yes"/>
			<point x="87" y="421"/>
			<point x="30" y="358"/>
			<point x="30" y="232" type="curve" smooth="yes"/>
			<point x="30" y="119"/>
			<point x="89" y="39"/>
			<point x="186" y="39" type="curve" smooth="yes"/>
			<point x="199" y="39"/>
			<point x="211" y="41"/>
			<point x="223" y="46" type="curve"/>
			<point x="223" y="71" type="line"/>
			<point x="212" y="67"/>
			<point x="202" y="65"/>
			<point x="191" y="65" type="curve" smooth="yes"/>
			<point x="111" y="65"/>
			<point x="64" y="127"/>
			<point x="64" y="216" type="curve" smooth="yes"/>
			<point x="64" y="312"/>
			<point x="105" y="350"/>
			<point x="167" y="350" type="curve" smooth="yes"/>
			<point x="227" y="350"/>
			<point x="261" y="303"/>
			<point x="261" y="225" type="curve" smooth="yes"/>
			<point x="261" y="157" type="line"/>
			<point x="293" y="157" type="line"/>
			<point x="293" y="225" type="line" smooth="yes"/>
			<point x="293" y="308"/>
			<point x="324" y="350"/>
			<point x="382" y="350" type="curve" smooth="yes"/>
			<point x="440" y="350"/>
			<point x="471" y="308"/>
			<point x="471" y="225" type="curve" smooth="yes"/>
			<point x="471" y="157" type="line"/>
			<point x="503" y="157" type="line"/>
			<point x="503" y="225" type="line" smooth="yes"/>
			<point x="503" y="303"/>
			<point x="535" y="350"/>
			<point x="592" y="350" type="curve" smooth="yes"/>
			<point x="669" y="350"/>
			<point x="690" y="268"/>
			<point x="690" y="180" type="curve" smooth="yes"/>
			<point x="690" y="-91"/>
			<point x="450" y="-155"/>
			<point x="352" y="-157" type="curve" smooth="yes"/>
			<point x="259" y="-158"/>
			<point x="170" y="-141"/>
			<point x="170" y="-87" type="curve" smooth="yes"/>
			<point x="170" y="-52"/>
			<point x="236" y="-18"/>
			<point x="352" y="-18" type="curve" smooth="yes"/>
			<point x="482" y="-18"/>
			<point x="629" y="-108"/>
		</contour>
	</outline>
</glyph>
<glyph name="nineArchaic-sinhala" format="2">
	<advance width="1121"/>
	<unicode hex="111E9"/>
	<guideline x="-47" y="422" angle="0"/>
	<guideline x="18" y="605" angle="0"/>
	<outline>
		<contour>
			<point x="481" y="-190" type="curve" smooth="yes"/>
			<point x="726" y="-190"/>
			<point x="856" y="-36"/>
			<point x="856" y="196" type="curve" smooth="yes"/>
			<point x="856" y="302"/>
			<point x="820" y="421"/>
			<point x="724" y="421" type="curve" smooth="yes"/>
			<point x="660" y="421"/>
			<point x="614" y="372"/>
			<point x="614" y="303" type="curve"/>
			<point x="624" y="303" type="line"/>
			<point x="624" y="376"/>
			<point x="582" y="421"/>
			<point x="514" y="421" type="curve" smooth="yes"/>
			<point x="446" y="421"/>
			<point x="404" y="376"/>
			<point x="404" y="303" type="curve"/>
			<point x="414" y="303" type="line"/>
			<point x="414" y="374"/>
			<point x="368" y="421"/>
			<point x="299" y="421" type="curve" smooth="yes"/>
			<point x="219" y="421"/>
			<point x="162" y="358"/>
			<point x="162" y="227" type="curve" smooth="yes"/>
			<point x="162" y="119"/>
			<point x="221" y="29"/>
			<point x="318" y="29" type="curve" smooth="yes"/>
			<point x="331" y="29"/>
			<point x="343" y="31"/>
			<point x="355" y="36" type="curve"/>
			<point x="355" y="61" type="line"/>
			<point x="344" y="57"/>
			<point x="334" y="55"/>
			<point x="323" y="55" type="curve" smooth="yes"/>
			<point x="243" y="55"/>
			<point x="196" y="127"/>
			<point x="196" y="211" type="curve" smooth="yes"/>
			<point x="196" y="312"/>
			<point x="237" y="350"/>
			<point x="299" y="350" type="curve" smooth="yes"/>
			<point x="359" y="350"/>
			<point x="393" y="303"/>
			<point x="393" y="225" type="curve" smooth="yes"/>
			<point x="393" y="157" type="line"/>
			<point x="425" y="157" type="line"/>
			<point x="425" y="225" type="line" smooth="yes"/>
			<point x="425" y="308"/>
			<point x="456" y="350"/>
			<point x="514" y="350" type="curve" smooth="yes"/>
			<point x="572" y="350"/>
			<point x="603" y="308"/>
			<point x="603" y="225" type="curve" smooth="yes"/>
			<point x="603" y="157" type="line"/>
			<point x="635" y="157" type="line"/>
			<point x="635" y="225" type="line" smooth="yes"/>
			<point x="635" y="303"/>
			<point x="667" y="350"/>
			<point x="724" y="350" type="curve" smooth="yes"/>
			<point x="801" y="350"/>
			<point x="822" y="268"/>
			<point x="822" y="180" type="curve" smooth="yes"/>
			<point x="822" y="-1"/>
			<point x="724" y="-107"/>
			<point x="474" y="-107" type="curve" smooth="yes"/>
			<point x="219" y="-107"/>
			<point x="64" y="16"/>
			<point x="64" y="215" type="curve" smooth="yes"/>
			<point x="64" y="439"/>
			<point x="224" y="570"/>
			<point x="492" y="570" type="curve" smooth="yes"/>
			<point x="819" y="570"/>
			<point x="991" y="363"/>
			<point x="1038" y="-80" type="curve"/>
			<point x="1061" y="-80" type="line"/>
			<point x="1061" y="424" type="line"/>
			<point x="1033" y="424" type="line"/>
			<point x="1033" y="40" type="line"/>
			<point x="1047" y="-57" type="line"/>
			<point x="1047" y="301"/>
			<point x="872" y="605"/>
			<point x="492" y="605" type="curve" smooth="yes"/>
			<point x="205" y="605"/>
			<point x="30" y="459"/>
			<point x="30" y="215" type="curve" smooth="yes"/>
			<point x="30" y="-33"/>
			<point x="203" y="-190"/>
		</contour>
	</outline>
</glyph>
<glyph name="fortyArchaic-sinhala" format="2">
	<advance width="1051"/>
	<unicode hex="111ED"/>
	<outline>
		<contour>
			<point x="419" y="-2" type="curve" smooth="yes"/>
			<point x="526" y="-2"/>
			<point x="592" y="68"/>
			<point x="592" y="158" type="curve" smooth="yes"/>
			<point x="592" y="262"/>
			<point x="517" y="312"/>
			<point x="418" y="312" type="curve" smooth="yes"/>
			<point x="387" y="312"/>
			<point x="361" y="308"/>
			<point x="340" y="299" type="curve"/>
			<point x="379" y="347"/>
			<point x="450" y="370"/>
			<point x="513" y="370" type="curve" smooth="yes"/>
			<point x="565" y="370"/>
			<point x="644" y="334"/>
			<point x="662" y="266" type="curve"/>
			<point x="682" y="266" type="line"/>
			<point x="683" y="284" type="line" smooth="yes"/>
			<point x="686" y="337"/>
			<point x="710" y="370"/>
			<point x="755" y="370" type="curve" smooth="yes"/>
			<point x="809" y="370"/>
			<point x="822" y="324"/>
			<point x="822" y="285" type="curve" smooth="yes"/>
			<point x="822" y="26" type="line"/>
			<point x="799" y="26" type="line" smooth="yes"/>
			<point x="722" y="26"/>
			<point x="712" y="71"/>
			<point x="712" y="101" type="curve" smooth="yes"/>
			<point x="712" y="143"/>
			<point x="736" y="179"/>
			<point x="786" y="179" type="curve" smooth="yes"/>
			<point x="788" y="179"/>
			<point x="810" y="180"/>
			<point x="828" y="175" type="curve" smooth="yes"/>
			<point x="844" y="170" type="line" smooth="yes"/>
			<point x="897" y="150"/>
			<point x="933" y="113"/>
			<point x="973" y="0" type="curve"/>
			<point x="991" y="0" type="line"/>
			<point x="991" y="422" type="line"/>
			<point x="963" y="422" type="line"/>
			<point x="963" y="30" type="line"/>
			<point x="984" y="23" type="line"/>
			<point x="947" y="129"/>
			<point x="909" y="166"/>
			<point x="845" y="194" type="curve" smooth="yes"/>
			<point x="832" y="199" type="line"/>
			<point x="814" y="203"/>
			<point x="788" y="204"/>
			<point x="786" y="204" type="curve" smooth="yes"/>
			<point x="683" y="204"/>
			<point x="646" y="148"/>
			<point x="646" y="101" type="curve" smooth="yes"/>
			<point x="646" y="38"/>
			<point x="703" y="0"/>
			<point x="794" y="0" type="curve" smooth="yes"/>
			<point x="850" y="0" type="line"/>
			<point x="850" y="305" type="line" smooth="yes"/>
			<point x="850" y="361"/>
			<point x="828" y="425"/>
			<point x="756" y="425" type="curve" smooth="yes"/>
			<point x="678" y="425"/>
			<point x="661" y="344"/>
			<point x="661" y="307" type="curve"/>
			<point x="678" y="307" type="line"/>
			<point x="678" y="344"/>
			<point x="620" y="425"/>
			<point x="513" y="425" type="curve" smooth="yes"/>
			<point x="459" y="425"/>
			<point x="408" y="408"/>
			<point x="344" y="339" type="curve"/>
			<point x="345" y="344"/>
			<point x="345" y="343"/>
			<point x="345" y="348" type="curve" smooth="yes"/>
			<point x="345" y="397"/>
			<point x="308" y="423"/>
			<point x="264" y="423" type="curve" smooth="yes"/>
			<point x="233" y="423"/>
			<point x="192" y="407"/>
			<point x="192" y="351" type="curve" smooth="yes"/>
			<point x="192" y="339"/>
			<point x="194" y="324"/>
			<point x="204" y="307" type="curve"/>
			<point x="223" y="318" type="line"/>
			<point x="219" y="328"/>
			<point x="217" y="336"/>
			<point x="217" y="346" type="curve" smooth="yes"/>
			<point x="217" y="382"/>
			<point x="240" y="394"/>
			<point x="266" y="394" type="curve" smooth="yes"/>
			<point x="301" y="394"/>
			<point x="319" y="369"/>
			<point x="319" y="341" type="curve" smooth="yes"/>
			<point x="319" y="322"/>
			<point x="307" y="308"/>
			<point x="299" y="299" type="curve" smooth="yes"/>
			<point x="244" y="237"/>
			<point x="178" y="127"/>
			<point x="165" y="24" type="curve"/>
			<point x="187" y="9" type="line"/>
			<point x="196" y="52"/>
			<point x="208" y="77"/>
			<point x="231" y="77" type="curve" smooth="yes"/>
			<point x="281" y="77"/>
			<point x="274" y="-2"/>
		</contour>
		<contour>
			<point x="136" y="0" type="curve"/>
			<point x="136" y="29" type="line"/>
			<point x="81" y="67"/>
			<point x="59" y="116"/>
			<point x="59" y="179" type="curve" smooth="yes"/>
			<point x="59" y="270"/>
			<point x="106" y="316"/>
			<point x="155" y="316" type="curve" smooth="yes"/>
			<point x="172" y="316"/>
			<point x="185" y="313"/>
			<point x="204" y="307" type="curve"/>
			<point x="205" y="335" type="line"/>
			<point x="189" y="341"/>
			<point x="175" y="345"/>
			<point x="158" y="345" type="curve" smooth="yes"/>
			<point x="93" y="345"/>
			<point x="30" y="296"/>
			<point x="30" y="180" type="curve" smooth="yes"/>
			<point x="30" y="116"/>
			<point x="59" y="42"/>
		</contour>
		<contour>
			<point x="392" y="71" type="curve" smooth="yes"/>
			<point x="316" y="71"/>
			<point x="281" y="106"/>
			<point x="245" y="106" type="curve" smooth="yes"/>
			<point x="234" y="106"/>
			<point x="222" y="105"/>
			<point x="213" y="98" type="curve"/>
			<point x="234" y="161"/>
			<point x="267" y="217"/>
			<point x="297" y="254" type="curve"/>
			<point x="327" y="277"/>
			<point x="372" y="289"/>
			<point x="420" y="289" type="curve" smooth="yes"/>
			<point x="485" y="289"/>
			<point x="551" y="254"/>
			<point x="551" y="184" type="curve" smooth="yes"/>
			<point x="551" y="101"/>
			<point x="477" y="71"/>
		</contour>
	</outline>
</glyph>
<glyph name="seventyArchaic-sinhala" format="2">
	<advance width="1303"/>
	<unicode hex="111F0"/>
	<outline>
		<contour>
			<point x="717" y="-1" type="curve" smooth="yes"/>
			<point x="814" y="-1"/>
			<point x="878" y="56"/>
			<point x="878" y="142" type="curve" smooth="yes"/>
			<point x="878" y="194"/>
			<point x="852" y="231"/>
			<point x="814" y="231" type="curve" smooth="yes"/>
			<point x="803" y="231"/>
			<point x="794" y="229"/>
			<point x="786" y="224" type="curve"/>
			<point x="807" y="310"/>
			<point x="853" y="354"/>
			<point x="925" y="354" type="curve" smooth="yes"/>
			<point x="1014" y="354"/>
			<point x="1084" y="281"/>
			<point x="1084" y="188" type="curve" smooth="yes"/>
			<point x="1084" y="26" type="line"/>
			<point x="1061" y="26" type="line" smooth="yes"/>
			<point x="1005" y="26"/>
			<point x="974" y="53"/>
			<point x="974" y="101" type="curve" smooth="yes"/>
			<point x="974" y="148"/>
			<point x="1003" y="179"/>
			<point x="1048" y="179" type="curve" smooth="yes"/>
			<point x="1066" y="179"/>
			<point x="1080" y="178"/>
			<point x="1090" y="175" type="curve" smooth="yes"/>
			<point x="1106" y="170" type="line" smooth="yes"/>
			<point x="1159" y="150"/>
			<point x="1185" y="113"/>
			<point x="1225" y="0" type="curve"/>
			<point x="1243" y="0" type="line"/>
			<point x="1243" y="422" type="line"/>
			<point x="1215" y="422" type="line"/>
			<point x="1215" y="30" type="line"/>
			<point x="1236" y="23" type="line"/>
			<point x="1199" y="129"/>
			<point x="1171" y="166"/>
			<point x="1107" y="194" type="curve" smooth="yes"/>
			<point x="1094" y="199" type="line"/>
			<point x="1084" y="201"/>
			<point x="1058" y="204"/>
			<point x="1048" y="204" type="curve" smooth="yes"/>
			<point x="965" y="204"/>
			<point x="908" y="162"/>
			<point x="908" y="101" type="curve" smooth="yes"/>
			<point x="908" y="38"/>
			<point x="964" y="0"/>
			<point x="1056" y="0" type="curve" smooth="yes"/>
			<point x="1112" y="0" type="line"/>
			<point x="1112" y="206" type="line" smooth="yes"/>
			<point x="1112" y="332"/>
			<point x="1041" y="422"/>
			<point x="941" y="422" type="curve" smooth="yes"/>
			<point x="842" y="422"/>
			<point x="763" y="310"/>
			<point x="754" y="188" type="curve"/>
			<point x="776" y="178" type="line"/>
			<point x="783" y="199"/>
			<point x="796" y="207"/>
			<point x="809" y="207" type="curve" smooth="yes"/>
			<point x="829" y="207"/>
			<point x="843" y="190"/>
			<point x="843" y="160" type="curve" smooth="yes"/>
			<point x="843" y="98"/>
			<point x="788" y="70"/>
			<point x="724" y="70" type="curve" smooth="yes"/>
			<point x="652" y="70"/>
			<point x="589" y="103"/>
			<point x="589" y="171" type="curve" smooth="yes"/>
			<point x="589" y="239"/>
			<point x="644" y="273"/>
			<point x="722" y="273" type="curve"/>
			<point x="722" y="296" type="line"/>
			<point x="710" y="296" type="line" smooth="yes"/>
			<point x="616" y="296"/>
			<point x="553" y="238"/>
			<point x="553" y="151" type="curve" smooth="yes"/>
			<point x="553" y="61"/>
			<point x="619" y="-1"/>
		</contour>
		<contour>
			<point x="187" y="-1" type="curve" smooth="yes"/>
			<point x="199" y="-1"/>
			<point x="211" y="1"/>
			<point x="224" y="6" type="curve"/>
			<point x="224" y="31" type="line"/>
			<point x="213" y="27"/>
			<point x="203" y="25"/>
			<point x="192" y="25" type="curve" smooth="yes"/>
			<point x="113" y="25"/>
			<point x="64" y="89"/>
			<point x="64" y="207" type="curve" smooth="yes"/>
			<point x="64" y="298"/>
			<point x="102" y="352"/>
			<point x="158" y="352" type="curve" smooth="yes"/>
			<point x="214" y="352"/>
			<point x="236" y="305"/>
			<point x="236" y="237" type="curve" smooth="yes"/>
			<point x="236" y="227" type="line"/>
			<point x="268" y="227" type="line"/>
			<point x="268" y="237" type="line" smooth="yes"/>
			<point x="268" y="305"/>
			<point x="296" y="352"/>
			<point x="340" y="352" type="curve" smooth="yes"/>
			<point x="397" y="352"/>
			<point x="414" y="305"/>
			<point x="414" y="259" type="curve" smooth="yes"/>
			<point x="414" y="169"/>
			<point x="375" y="140"/>
			<point x="324" y="140" type="curve" smooth="yes"/>
			<point x="236" y="140" type="line"/>
			<point x="236" y="113" type="line"/>
			<point x="314" y="113" type="line" smooth="yes"/>
			<point x="358" y="113"/>
			<point x="445" y="125"/>
			<point x="445" y="277" type="curve" smooth="yes"/>
			<point x="445" y="360"/>
			<point x="408" y="421"/>
			<point x="343" y="421" type="curve" smooth="yes"/>
			<point x="284" y="421"/>
			<point x="247" y="381"/>
			<point x="247" y="307" type="curve"/>
			<point x="257" y="307" type="line"/>
			<point x="257" y="381"/>
			<point x="221" y="421"/>
			<point x="157" y="421" type="curve" smooth="yes"/>
			<point x="76" y="421"/>
			<point x="30" y="332"/>
			<point x="30" y="230" type="curve" smooth="yes"/>
			<point x="30" y="100"/>
			<point x="78" y="-1"/>
		</contour>
		<contour>
			<point x="541" y="-190" type="curve" smooth="yes"/>
			<point x="571" y="-190"/>
			<point x="592" y="-150"/>
			<point x="592" y="-105" type="curve" smooth="yes"/>
			<point x="592" y="25"/>
			<point x="425" y="137"/>
			<point x="258" y="137" type="curve"/>
			<point x="259" y="113" type="line"/>
			<point x="404" y="113"/>
			<point x="566" y="21"/>
			<point x="566" y="-105" type="curve" smooth="yes"/>
			<point x="566" y="-126"/>
			<point x="559" y="-159"/>
			<point x="541" y="-159" type="curve" smooth="yes"/>
			<point x="512" y="-159"/>
			<point x="495" y="-133"/>
			<point x="495" y="-28" type="curve" smooth="yes"/>
			<point x="495" y="112" type="line" smooth="yes"/>
			<point x="495" y="219"/>
			<point x="514" y="361"/>
			<point x="616" y="383" type="curve"/>
			<point x="654" y="418" type="line"/>
			<point x="504" y="400"/>
			<point x="470" y="275"/>
			<point x="470" y="78" type="curve" smooth="yes"/>
			<point x="470" y="-28" type="line" smooth="yes"/>
			<point x="470" y="-148"/>
			<point x="496" y="-190"/>
		</contour>
		<contour>
			<point x="683" y="273" type="curve"/>
			<point x="720" y="284" type="line"/>
			<point x="720" y="296" type="line"/>
			<point x="691" y="296" type="line" smooth="yes"/>
			<point x="643" y="296"/>
			<point x="607" y="309"/>
			<point x="607" y="347" type="curve" smooth="yes"/>
			<point x="607" y="372"/>
			<point x="623" y="399"/>
			<point x="682" y="399" type="curve"/>
			<point x="682" y="420" type="line"/>
			<point x="603" y="420"/>
			<point x="578" y="381"/>
			<point x="578" y="347" type="curve" smooth="yes"/>
			<point x="578" y="305"/>
			<point x="606" y="272"/>
		</contour>
	</outline>
</glyph>
<glyph name=".notdef" format="2">
	<advance width="600"/>
	<outline>
		<contour>
			<point x="581" y="-92.66" type="line"/>
			<point x="50" y="-92.66" type="line"/>
			<point x="50" y="754.34" type="line"/>
			<point x="581" y="754.34" type="line"/>
		</contour>
		<contour>
			<point x="260" y="22"/>
			<point x="260" y="40" type="curve" smooth="yes"/>
			<point x="260" y="58"/>
			<point x="276" y="74"/>
			<point x="294" y="74" type="curve" smooth="yes"/>
			<point x="312" y="74"/>
			<point x="328" y="58"/>
			<point x="328" y="40" type="curve" smooth="yes"/>
			<point x="328" y="22"/>
			<point x="312" y="7"/>
			<point x="294" y="7" type="curve" smooth="yes"/>
			<point x="276" y="7"/>
		</contour>
		<contour>
			<point x="541.62" y="718.34" type="line"/>
			<point x="88.38" y="718.34" type="line"/>
			<point x="88.38" y="-55.55" type="line"/>
			<point x="541.62" y="-55.55" type="line"/>
		</contour>
		<contour>
			<point x="199.547" y="472.045" type="curve"/>
			<point x="168.906" y="498.894" type="line"/>
			<point x="192.791" y="529.146"/>
			<point x="237.149" y="573.34"/>
			<point x="310.475" y="573.34" type="curve" smooth="yes"/>
			<point x="406.15" y="573.34"/>
			<point x="461.629" y="509.014"/>
			<point x="463.165" y="423.806" type="curve" smooth="yes"/>
			<point x="465" y="322"/>
			<point x="387.732" y="270.116"/>
			<point x="316.428" y="268.12" type="curve"/>
			<point x="316.428" y="122" type="line"/>
			<point x="270.492" y="122" type="line"/>
			<point x="270.492" y="309.044" type="line"/>
			<point x="363.296" y="310.459"/>
			<point x="417.23" y="338.678"/>
			<point x="417.23" y="418.65" type="curve" smooth="yes"/>
			<point x="417.23" y="479.219"/>
			<point x="377.355" y="533.04"/>
			<point x="308.475" y="533.04" type="curve" smooth="yes"/>
			<point x="244.473" y="533.04"/>
			<point x="216.848" y="495.115"/>
		</contour>
	</outline>
</glyph>
<glyph name="mooniak" format="2">
	<advance width="952"/>
	<outline>
		<contour>
			<point x="345" y="56" type="curve" smooth="yes"/>
			<point x="519" y="56"/>
			<point x="660" y="197"/>
			<point x="660" y="371" type="curve" smooth="yes"/>
			<point x="660" y="545"/>
			<point x="519" y="686"/>
			<point x="345" y="686" type="curve" smooth="yes"/>
			<point x="171" y="686"/>
			<point x="30" y="545"/>
			<point x="30" y="371" type="curve" smooth="yes"/>
			<point x="30" y="197"/>
			<point x="171" y="56"/>
		</contour>
		<contour>
			<point x="807" y="542" type="curve" smooth="yes"/>
			<point x="870" y="542"/>
			<point x="921" y="593"/>
			<point x="921" y="656" type="curve" smooth="yes"/>
			<point x="921" y="719"/>
			<point x="870" y="770"/>
			<point x="807" y="770" type="curve" smooth="yes"/>
			<point x="744" y="770"/>
			<point x="693" y="719"/>
			<point x="693" y="656" type="curve" smooth="yes"/>
			<point x="693" y="593"/>
			<point x="744" y="542"/>
		</contour>
	</outline>
</glyph>
<glyph name="sinBU" format="2">
	<advance width="702"/>
	<outline>
		<contour>
			<point x="245" y="-209" type="curve" smooth="yes"/>
			<point x="636" y="-209" type="line"/>
			<point x="629" y="207" type="line"/>
			<point x="599" y="205" type="line"/>
			<point x="581" y="-137" type="line"/>
			<point x="417" y="-151"/>
			<point x="334" y="-164"/>
			<point x="243" y="-162" type="curve" smooth="yes"/>
			<point x="191" y="-161"/>
			<point x="169" y="-113"/>
			<point x="169" y="-86" type="curve"/>
			<point x="166" y="-85"/>
			<point x="163" y="-85"/>
			<point x="160" y="-85" type="curve" smooth="yes"/>
			<point x="137" y="-85"/>
			<point x="105" y="-99"/>
			<point x="95" y="-109" type="curve"/>
			<point x="103" y="-151"/>
			<point x="143" y="-209"/>
		</contour>
		<component base="sinBa" xOffset="8"/>
	</outline>
</glyph>
<glyph name="sinCI" format="2">
	<advance width="636"/>
	<outline>
		<contour>
			<point x="316" y="-24" type="curve" smooth="yes"/>
			<point x="537" y="-24"/>
			<point x="596" y="136"/>
			<point x="596" y="255" type="curve" smooth="yes"/>
			<point x="596" y="422"/>
			<point x="492" y="545"/>
			<point x="345" y="545" type="curve" smooth="yes"/>
			<point x="286" y="545"/>
			<point x="238" y="544"/>
			<point x="182" y="531" type="curve"/>
			<point x="159" y="531"/>
			<point x="140" y="553"/>
			<point x="140" y="579" type="curve" smooth="yes"/>
			<point x="140" y="624"/>
			<point x="197" y="639"/>
			<point x="291" y="639" type="curve" smooth="yes"/>
			<point x="419" y="639"/>
			<point x="514" y="606"/>
			<point x="514" y="556" type="curve" smooth="yes"/>
			<point x="514" y="534"/>
			<point x="494" y="526"/>
			<point x="468" y="526" type="curve" smooth="yes"/>
			<point x="454" y="526"/>
			<point x="437" y="529"/>
			<point x="421" y="533" type="curve"/>
			<point x="445" y="472" type="line"/>
			<point x="449" y="471"/>
			<point x="452" y="471"/>
			<point x="456" y="471" type="curve" smooth="yes"/>
			<point x="499" y="471"/>
			<point x="543" y="513"/>
			<point x="543" y="569" type="curve" smooth="yes"/>
			<point x="543" y="641"/>
			<point x="485" y="712"/>
			<point x="345" y="712" type="curve" smooth="yes"/>
			<point x="229" y="712"/>
			<point x="103" y="670"/>
			<point x="103" y="558" type="curve" smooth="yes"/>
			<point x="103" y="498"/>
			<point x="145" y="476"/>
			<point x="193" y="476" type="curve" smooth="yes"/>
			<point x="244" y="476"/>
			<point x="291" y="484"/>
			<point x="362" y="479" type="curve" smooth="yes"/>
			<point x="447" y="474"/>
			<point x="553" y="401"/>
			<point x="553" y="265" type="curve" smooth="yes"/>
			<point x="553" y="164"/>
			<point x="509" y="58"/>
			<point x="314" y="58" type="curve" smooth="yes"/>
			<point x="207" y="58"/>
			<point x="133" y="107"/>
			<point x="133" y="162" type="curve" smooth="yes"/>
			<point x="133" y="211"/>
			<point x="184" y="228"/>
			<point x="250" y="228" type="curve" smooth="yes"/>
			<point x="282" y="228"/>
			<point x="317" y="224"/>
			<point x="351" y="218" type="curve"/>
			<point x="367" y="239" type="line"/>
			<point x="369" y="251"/>
			<point x="371" y="263"/>
			<point x="371" y="277" type="curve" smooth="yes"/>
			<point x="371" y="346"/>
			<point x="324" y="426"/>
			<point x="231" y="426" type="curve" smooth="yes"/>
			<point x="172" y="426"/>
			<point x="137" y="393"/>
			<point x="137" y="356" type="curve" smooth="yes"/>
			<point x="137" y="331"/>
			<point x="154" y="315"/>
			<point x="184" y="315" type="curve" smooth="yes"/>
			<point x="188" y="315"/>
			<point x="191" y="315"/>
			<point x="195" y="316" type="curve"/>
			<point x="196" y="324"/>
			<point x="215" y="368"/>
			<point x="263" y="368" type="curve" smooth="yes"/>
			<point x="301" y="368"/>
			<point x="335" y="342"/>
			<point x="333" y="291" type="curve"/>
			<point x="327" y="289"/>
			<point x="316" y="289"/>
			<point x="310" y="289" type="curve" smooth="yes"/>
			<point x="296" y="289"/>
			<point x="90" y="275"/>
			<point x="90" y="142" type="curve" smooth="yes"/>
			<point x="90" y="49"/>
			<point x="176" y="-24"/>
		</contour>
		<contour>
			<point x="33" y="200" type="line"/>
			<point x="75" y="225"/>
			<point x="190" y="273"/>
			<point x="328" y="280" type="curve"/>
			<point x="334" y="292" type="line"/>
			<point x="247" y="292"/>
			<point x="97" y="285"/>
			<point x="36" y="273" type="curve"/>
			<point x="29" y="259"/>
			<point x="23" y="230"/>
			<point x="23" y="208" type="curve"/>
		</contour>
	</outline>
</glyph>
<glyph name="sinCIi" format="2">
	<advance width="661"/>
	<outline>
		<contour>
			<point x="341" y="-24" type="curve" smooth="yes"/>
			<point x="552" y="-24"/>
			<point x="621" y="136"/>
			<point x="621" y="255" type="curve" smooth="yes"/>
			<point x="621" y="422"/>
			<point x="517" y="545"/>
			<point x="360" y="545" type="curve" smooth="yes"/>
			<point x="301" y="545"/>
			<point x="263" y="540"/>
			<point x="207" y="531" type="curve"/>
			<point x="184" y="531"/>
			<point x="165" y="553"/>
			<point x="165" y="566" type="curve" smooth="yes"/>
			<point x="165" y="624"/>
			<point x="252" y="639"/>
			<point x="346" y="639" type="curve" smooth="yes"/>
			<point x="474" y="639"/>
			<point x="539" y="607"/>
			<point x="539" y="557" type="curve" smooth="yes"/>
			<point x="539" y="535"/>
			<point x="526" y="521"/>
			<point x="502" y="521" type="curve" smooth="yes"/>
			<point x="482" y="521"/>
			<point x="462" y="535"/>
			<point x="462" y="559" type="curve" smooth="yes"/>
			<point x="462" y="578"/>
			<point x="472" y="598"/>
			<point x="494" y="616" type="curve"/>
			<point x="475" y="624" type="line"/>
			<point x="459" y="620"/>
			<point x="417" y="597"/>
			<point x="417" y="547" type="curve" smooth="yes"/>
			<point x="417" y="504"/>
			<point x="449" y="483"/>
			<point x="497" y="483" type="curve" smooth="yes"/>
			<point x="523" y="483"/>
			<point x="568" y="514"/>
			<point x="568" y="569" type="curve" smooth="yes"/>
			<point x="568" y="641"/>
			<point x="510" y="712"/>
			<point x="370" y="712" type="curve" smooth="yes"/>
			<point x="254" y="712"/>
			<point x="128" y="670"/>
			<point x="128" y="558" type="curve" smooth="yes"/>
			<point x="128" y="498"/>
			<point x="170" y="471"/>
			<point x="218" y="471" type="curve" smooth="yes"/>
			<point x="269" y="471"/>
			<point x="316" y="479"/>
			<point x="387" y="479" type="curve" smooth="yes"/>
			<point x="472" y="479"/>
			<point x="578" y="401"/>
			<point x="578" y="265" type="curve" smooth="yes"/>
			<point x="578" y="164"/>
			<point x="524" y="58"/>
			<point x="339" y="58" type="curve" smooth="yes"/>
			<point x="232" y="58"/>
			<point x="158" y="91"/>
			<point x="158" y="146" type="curve" smooth="yes"/>
			<point x="158" y="208"/>
			<point x="209" y="225"/>
			<point x="275" y="225" type="curve" smooth="yes"/>
			<point x="307" y="225"/>
			<point x="342" y="221"/>
			<point x="376" y="215" type="curve"/>
			<point x="392" y="236" type="line"/>
			<point x="394" y="248"/>
			<point x="396" y="260"/>
			<point x="396" y="274" type="curve" smooth="yes"/>
			<point x="396" y="343"/>
			<point x="349" y="423"/>
			<point x="256" y="423" type="curve" smooth="yes"/>
			<point x="197" y="423"/>
			<point x="162" y="390"/>
			<point x="162" y="353" type="curve" smooth="yes"/>
			<point x="162" y="328"/>
			<point x="179" y="312"/>
			<point x="209" y="312" type="curve" smooth="yes"/>
			<point x="213" y="312"/>
			<point x="216" y="312"/>
			<point x="220" y="313" type="curve"/>
			<point x="221" y="321"/>
			<point x="240" y="365"/>
			<point x="288" y="365" type="curve" smooth="yes"/>
			<point x="326" y="365"/>
			<point x="360" y="339"/>
			<point x="358" y="288" type="curve"/>
			<point x="352" y="286"/>
			<point x="341" y="286"/>
			<point x="335" y="286" type="curve" smooth="yes"/>
			<point x="321" y="286"/>
			<point x="115" y="272"/>
			<point x="115" y="126" type="curve" smooth="yes"/>
			<point x="115" y="33"/>
			<point x="201" y="-24"/>
		</contour>
		<contour>
			<point x="58" y="197" type="line"/>
			<point x="100" y="222"/>
			<point x="215" y="270"/>
			<point x="353" y="277" type="curve"/>
			<point x="359" y="289" type="line"/>
			<point x="272" y="289"/>
			<point x="122" y="282"/>
			<point x="61" y="270" type="curve"/>
			<point x="54" y="256"/>
			<point x="48" y="227"/>
			<point x="48" y="205" type="curve"/>
		</contour>
	</outline>
</glyph>
<glyph name="sinChU" format="2">
	<advance width="629"/>
	<outline>
		<contour>
			<point x="211" y="-215" type="curve" smooth="yes"/>
			<point x="569" y="-215" type="line"/>
			<point x="564" y="201" type="line"/>
			<point x="537" y="199" type="line"/>
			<point x="517" y="-147" type="line"/>
			<point x="413" y="-161"/>
			<point x="303" y="-170"/>
			<point x="209" y="-168" type="curve" smooth="yes"/>
			<point x="157" y="-167"/>
			<point x="135" y="-119"/>
			<point x="135" y="-92" type="curve"/>
			<point x="132" y="-91"/>
			<point x="129" y="-91"/>
			<point x="126" y="-91" type="curve" smooth="yes"/>
			<point x="103" y="-91"/>
			<point x="71" y="-105"/>
			<point x="61" y="-115" type="curve"/>
			<point x="69" y="-157"/>
			<point x="109" y="-215"/>
		</contour>
		<component base="sinCha"/>
	</outline>
</glyph>
<glyph name="sinDDhIi" format="2">
	<advance width="785"/>
	<outline>
		<contour>
			<point x="568" y="-16" type="curve" smooth="yes"/>
			<point x="685" y="-16"/>
			<point x="743" y="109"/>
			<point x="741" y="252" type="curve" smooth="yes"/>
			<point x="741" y="426"/>
			<point x="597" y="515"/>
			<point x="491" y="515" type="curve" smooth="yes"/>
			<point x="410" y="515"/>
			<point x="384" y="503"/>
			<point x="328" y="503" type="curve" smooth="yes"/>
			<point x="290" y="503"/>
			<point x="261" y="501"/>
			<point x="261" y="526" type="curve" smooth="yes"/>
			<point x="261" y="572"/>
			<point x="315" y="614"/>
			<point x="469" y="614" type="curve" smooth="yes"/>
			<point x="584" y="614"/>
			<point x="640" y="580"/>
			<point x="640" y="537" type="curve" smooth="yes"/>
			<point x="640" y="514"/>
			<point x="627" y="500"/>
			<point x="603" y="500" type="curve" smooth="yes"/>
			<point x="583" y="500"/>
			<point x="565" y="513"/>
			<point x="565" y="537" type="curve" smooth="yes"/>
			<point x="565" y="556"/>
			<point x="575" y="575"/>
			<point x="597" y="593" type="curve"/>
			<point x="578" y="602" type="line"/>
			<point x="562" y="598"/>
			<point x="520" y="575"/>
			<point x="520" y="525" type="curve" smooth="yes"/>
			<point x="520" y="482"/>
			<point x="552" y="461"/>
			<point x="600" y="461" type="curve" smooth="yes"/>
			<point x="642" y="461"/>
			<point x="672" y="496"/>
			<point x="672" y="548" type="curve" smooth="yes"/>
			<point x="672" y="612"/>
			<point x="607" y="683"/>
			<point x="477" y="683" type="curve" smooth="yes"/>
			<point x="318" y="683"/>
			<point x="228" y="614"/>
			<point x="228" y="526" type="curve" smooth="yes"/>
			<point x="228" y="475"/>
			<point x="252" y="438"/>
			<point x="330" y="438" type="curve" smooth="yes"/>
			<point x="371" y="438"/>
			<point x="425" y="450"/>
			<point x="493" y="450" type="curve" smooth="yes"/>
			<point x="571" y="450"/>
			<point x="702" y="405"/>
			<point x="702" y="259" type="curve" smooth="yes"/>
			<point x="702" y="133"/>
			<point x="637" y="65"/>
			<point x="562" y="65" type="curve" smooth="yes"/>
			<point x="531" y="65"/>
			<point x="481" y="80"/>
			<point x="481" y="142" type="curve" smooth="yes"/>
			<point x="481" y="147"/>
			<point x="481" y="152"/>
			<point x="482" y="158" type="curve"/>
			<point x="463" y="154" type="line"/>
			<point x="447" y="111"/>
			<point x="415" y="69"/>
			<point x="346" y="69" type="curve" smooth="yes"/>
			<point x="268" y="69"/>
			<point x="228" y="118"/>
			<point x="228" y="174" type="curve" smooth="yes"/>
			<point x="228" y="243"/>
			<point x="272" y="306"/>
			<point x="390" y="306" type="curve" smooth="yes"/>
			<point x="414" y="306"/>
			<point x="440" y="303"/>
			<point x="467" y="297" type="curve"/>
			<point x="478" y="310" type="line"/>
			<point x="478" y="329"/>
			<point x="469" y="351"/>
			<point x="459" y="362" type="curve"/>
			<point x="448" y="363"/>
			<point x="436" y="364"/>
			<point x="425" y="364" type="curve" smooth="yes"/>
			<point x="284" y="364"/>
			<point x="190" y="291"/>
			<point x="190" y="153" type="curve" smooth="yes"/>
			<point x="190" y="50"/>
			<point x="245" y="-15"/>
			<point x="343" y="-15" type="curve" smooth="yes"/>
			<point x="428" y="-15"/>
			<point x="464" y="48"/>
			<point x="469" y="83" type="curve"/>
			<point x="470" y="83"/>
			<point x="461" y="92"/>
			<point x="461" y="102" type="curve" smooth="yes"/>
			<point x="461" y="105" type="line"/>
			<point x="460" y="99"/>
			<point x="459" y="93"/>
			<point x="459" y="87" type="curve" smooth="yes"/>
			<point x="459" y="39"/>
			<point x="494" y="-16"/>
		</contour>
		<contour>
			<point x="112" y="-22" type="curve"/>
			<point x="131" y="-22"/>
			<point x="142" y="-18"/>
			<point x="146" y="-15" type="curve"/>
			<point x="123" y="12"/>
			<point x="111" y="63"/>
			<point x="111" y="118" type="curve" smooth="yes"/>
			<point x="111" y="240"/>
			<point x="172" y="321"/>
			<point x="307" y="321" type="curve" smooth="yes"/>
			<point x="322" y="321"/>
			<point x="337" y="320"/>
			<point x="353" y="317" type="curve"/>
			<point x="336" y="306" type="line"/>
			<point x="448" y="353" type="line"/>
			<point x="446" y="362" type="line"/>
			<point x="433" y="364"/>
			<point x="427" y="365"/>
			<point x="403" y="367" type="curve" smooth="yes"/>
			<point x="384" y="369"/>
			<point x="366" y="370"/>
			<point x="328" y="370" type="curve" smooth="yes"/>
			<point x="165" y="370"/>
			<point x="50" y="277"/>
			<point x="50" y="134" type="curve" smooth="yes"/>
			<point x="50" y="66"/>
			<point x="82" y="10"/>
		</contour>
	</outline>
</glyph>
<glyph name="sinDVa.reph" format="2">
	<advance width="690"/>
	<outline>
		<contour>
			<point x="359" y="584" type="line"/>
			<point x="395" y="603"/>
			<point x="422" y="639"/>
			<point x="422" y="696" type="curve" smooth="yes"/>
			<point x="422" y="781"/>
			<point x="356" y="842"/>
			<point x="265" y="842" type="curve" smooth="yes"/>
			<point x="169" y="842"/>
			<point x="116" y="773"/>
			<point x="116" y="701" type="curve" smooth="yes"/>
			<point x="116" y="648"/>
			<point x="152" y="605"/>
			<point x="209" y="605" type="curve" smooth="yes"/>
			<point x="257" y="605"/>
			<point x="282" y="637"/>
			<point x="282" y="673" type="curve" smooth="yes"/>
			<point x="282" y="716"/>
			<point x="250" y="748"/>
			<point x="213" y="748" type="curve" smooth="yes"/>
			<point x="169" y="748"/>
			<point x="151" y="709"/>
			<point x="141" y="699" type="curve"/>
			<point x="150" y="686" type="line"/>
			<point x="165" y="695"/>
			<point x="178" y="705"/>
			<point x="210" y="705" type="curve" smooth="yes"/>
			<point x="233" y="705"/>
			<point x="257" y="694"/>
			<point x="257" y="675" type="curve" smooth="yes"/>
			<point x="257" y="651"/>
			<point x="232" y="645"/>
			<point x="213" y="645" type="curve" smooth="yes"/>
			<point x="176" y="645"/>
			<point x="156" y="670"/>
			<point x="156" y="712" type="curve" smooth="yes"/>
			<point x="156" y="761"/>
			<point x="215" y="781"/>
			<point x="265" y="781" type="curve" smooth="yes"/>
			<point x="297" y="781"/>
			<point x="390" y="766"/>
			<point x="390" y="694" type="curve" smooth="yes"/>
			<point x="390" y="654"/>
			<point x="378" y="628"/>
			<point x="341" y="613" type="curve"/>
		</contour>
		<component base="sinDVa"/>
	</outline>
</glyph>
<glyph name="sinFU" format="2">
	<advance width="714"/>
	<outline>
		<contour>
			<point x="239" y="-215" type="curve" smooth="yes"/>
			<point x="654" y="-215" type="line"/>
			<point x="649" y="197" type="line"/>
			<point x="619" y="195" type="line"/>
			<point x="599" y="-151" type="line"/>
			<point x="506" y="-164"/>
			<point x="364" y="-171"/>
			<point x="268" y="-171" type="curve" smooth="yes"/>
			<point x="237" y="-171" type="line" smooth="yes"/>
			<point x="185" y="-171"/>
			<point x="163" y="-119"/>
			<point x="163" y="-92" type="curve"/>
			<point x="160" y="-91"/>
			<point x="157" y="-91"/>
			<point x="154" y="-91" type="curve" smooth="yes"/>
			<point x="131" y="-91"/>
			<point x="99" y="-105"/>
			<point x="89" y="-115" type="curve"/>
			<point x="97" y="-157"/>
			<point x="137" y="-215"/>
		</contour>
		<component base="sinFa"/>
	</outline>
</glyph>
<glyph name="sinGDha.reph" format="2">
	<advance width="1037"/>
	<outline>
		<contour>
			<point x="419" y="388" type="line"/>
			<point x="455" y="407"/>
			<point x="482" y="443"/>
			<point x="482" y="500" type="curve" smooth="yes"/>
			<point x="482" y="585"/>
			<point x="416" y="646"/>
			<point x="325" y="646" type="curve" smooth="yes"/>
			<point x="229" y="646"/>
			<point x="176" y="577"/>
			<point x="176" y="505" type="curve" smooth="yes"/>
			<point x="176" y="452"/>
			<point x="212" y="409"/>
			<point x="269" y="409" type="curve" smooth="yes"/>
			<point x="317" y="409"/>
			<point x="342" y="441"/>
			<point x="342" y="477" type="curve" smooth="yes"/>
			<point x="342" y="520"/>
			<point x="310" y="552"/>
			<point x="273" y="552" type="curve" smooth="yes"/>
			<point x="229" y="552"/>
			<point x="211" y="513"/>
			<point x="201" y="503" type="curve"/>
			<point x="210" y="490" type="line"/>
			<point x="225" y="499"/>
			<point x="238" y="509"/>
			<point x="270" y="509" type="curve" smooth="yes"/>
			<point x="293" y="509"/>
			<point x="317" y="498"/>
			<point x="317" y="479" type="curve" smooth="yes"/>
			<point x="317" y="455"/>
			<point x="292" y="449"/>
			<point x="273" y="449" type="curve" smooth="yes"/>
			<point x="236" y="449"/>
			<point x="216" y="474"/>
			<point x="216" y="516" type="curve" smooth="yes"/>
			<point x="216" y="565"/>
			<point x="275" y="585"/>
			<point x="325" y="585" type="curve" smooth="yes"/>
			<point x="357" y="585"/>
			<point x="450" y="570"/>
			<point x="450" y="498" type="curve" smooth="yes"/>
			<point x="450" y="458"/>
			<point x="438" y="432"/>
			<point x="401" y="417" type="curve"/>
		</contour>
		<component base="sinGDha"/>
	</outline>
</glyph>
<glyph name="sinGha.reph" format="2">
	<advance width="697"/>
	<outline>
		<contour>
			<point x="446" y="410" type="line"/>
			<point x="509" y="418"/>
			<point x="565" y="456"/>
			<point x="565" y="535" type="curve" smooth="yes"/>
			<point x="565" y="620"/>
			<point x="508" y="681"/>
			<point x="406" y="681" type="curve" smooth="yes"/>
			<point x="294" y="681"/>
			<point x="241" y="612"/>
			<point x="241" y="540" type="curve" smooth="yes"/>
			<point x="241" y="487"/>
			<point x="277" y="444"/>
			<point x="334" y="444" type="curve" smooth="yes"/>
			<point x="382" y="444"/>
			<point x="407" y="476"/>
			<point x="407" y="512" type="curve" smooth="yes"/>
			<point x="407" y="555"/>
			<point x="375" y="587"/>
			<point x="338" y="587" type="curve" smooth="yes"/>
			<point x="294" y="587"/>
			<point x="276" y="548"/>
			<point x="266" y="538" type="curve"/>
			<point x="275" y="525" type="line"/>
			<point x="290" y="534"/>
			<point x="303" y="544"/>
			<point x="335" y="544" type="curve" smooth="yes"/>
			<point x="358" y="544"/>
			<point x="382" y="533"/>
			<point x="382" y="514" type="curve" smooth="yes"/>
			<point x="382" y="490"/>
			<point x="357" y="484"/>
			<point x="338" y="484" type="curve" smooth="yes"/>
			<point x="301" y="484"/>
			<point x="281" y="509"/>
			<point x="281" y="551" type="curve" smooth="yes"/>
			<point x="281" y="600"/>
			<point x="350" y="620"/>
			<point x="410" y="620" type="curve" smooth="yes"/>
			<point x="445" y="620"/>
			<point x="533" y="605"/>
			<point x="533" y="530" type="curve" smooth="yes"/>
			<point x="533" y="484"/>
			<point x="514" y="457"/>
			<point x="442" y="434" type="curve"/>
		</contour>
		<component base="sinGha"/>
	</outline>
</glyph>
<glyph name="sinHU" format="2">
	<advance width="784"/>
	<outline>
		<contour>
			<point x="234" y="-216" type="curve" smooth="yes"/>
			<point x="720" y="-216" type="line"/>
			<point x="720" y="200" type="line"/>
			<point x="692" y="198" type="line"/>
			<point x="674" y="-148" type="line"/>
			<point x="523" y="-162"/>
			<point x="369" y="-174"/>
			<point x="252" y="-172" type="curve" smooth="yes"/>
			<point x="180" y="-171"/>
			<point x="158" y="-120"/>
			<point x="158" y="-93" type="curve"/>
			<point x="155" y="-92"/>
			<point x="152" y="-92"/>
			<point x="149" y="-92" type="curve" smooth="yes"/>
			<point x="126" y="-92"/>
			<point x="94" y="-106"/>
			<point x="84" y="-116" type="curve"/>
			<point x="92" y="-158"/>
			<point x="132" y="-216"/>
		</contour>
		<component base="sinHa" xOffset="10"/>
	</outline>
</glyph>
<glyph name="sinJIi" format="2">
	<advance width="642"/>
	<outline>
		<contour>
			<point x="398" y="429" type="curve"/>
			<point x="441" y="462" type="line"/>
			<point x="383" y="462"/>
			<point x="293" y="497"/>
			<point x="293" y="564" type="curve" smooth="yes"/>
			<point x="293" y="635"/>
			<point x="340" y="661"/>
			<point x="406" y="661" type="curve" smooth="yes"/>
			<point x="487" y="661"/>
			<point x="506" y="623"/>
			<point x="506" y="599" type="curve" smooth="yes"/>
			<point x="506" y="582"/>
			<point x="496" y="565"/>
			<point x="480" y="565" type="curve" smooth="yes"/>
			<point x="464" y="565"/>
			<point x="454" y="580"/>
			<point x="454" y="601" type="curve" smooth="yes"/>
			<point x="454" y="619"/>
			<point x="466" y="645"/>
			<point x="488" y="645" type="curve"/>
			<point x="479" y="657" type="line"/>
			<point x="452" y="657"/>
			<point x="416" y="635"/>
			<point x="416" y="598" type="curve" smooth="yes"/>
			<point x="416" y="564"/>
			<point x="446" y="543"/>
			<point x="475" y="543" type="curve" smooth="yes"/>
			<point x="517" y="543"/>
			<point x="535" y="574"/>
			<point x="535" y="618" type="curve" smooth="yes"/>
			<point x="535" y="661"/>
			<point x="488" y="715"/>
			<point x="411" y="715" type="curve" smooth="yes"/>
			<point x="300" y="715"/>
			<point x="261" y="634"/>
			<point x="261" y="568" type="curve" smooth="yes"/>
			<point x="261" y="486"/>
			<point x="322" y="429"/>
		</contour>
		<component base="sinJa"/>
	</outline>
</glyph>
<glyph name="sinJU" format="2">
	<advance width="672"/>
	<outline>
		<contour>
			<point x="204" y="-215" type="curve" smooth="yes"/>
			<point x="562" y="-215" type="line"/>
			<point x="557" y="201" type="line"/>
			<point x="530" y="199" type="line"/>
			<point x="510" y="-147" type="line"/>
			<point x="406" y="-161"/>
			<point x="296" y="-170"/>
			<point x="202" y="-168" type="curve" smooth="yes"/>
			<point x="150" y="-167"/>
			<point x="128" y="-119"/>
			<point x="128" y="-92" type="curve"/>
			<point x="125" y="-91"/>
			<point x="122" y="-91"/>
			<point x="119" y="-91" type="curve" smooth="yes"/>
			<point x="96" y="-91"/>
			<point x="64" y="-105"/>
			<point x="54" y="-115" type="curve"/>
			<point x="62" y="-157"/>
			<point x="102" y="-215"/>
		</contour>
		<component base="sinJa"/>
	</outline>
</glyph>
<glyph name="sinJhU" format="2">
	<advance width="1106"/>
	<outline>
		<contour>
			<point x="1029" y="-215" type="line"/>
			<point x="1024" y="201" type="line"/>
			<point x="997" y="199" type="line"/>
			<point x="979" y="-138" type="line"/>
			<point x="906" y="-155"/>
			<point x="828" y="-160"/>
			<point x="756" y="-160" type="curve" smooth="yes"/>
			<point x="726" y="-160"/>
			<point x="697" y="-159"/>
			<point x="669" y="-158" type="curve" smooth="yes"/>
			<point x="617" y="-155"/>
			<point x="595" y="-109"/>
			<point x="595" y="-82" type="curve"/>
			<point x="592" y="-81"/>
			<point x="589" y="-81"/>
			<point x="586" y="-81" type="curve" smooth="yes"/>
			<point x="563" y="-81"/>
			<point x="531" y="-95"/>
			<point x="521" y="-105" type="curve"/>
			<point x="529" y="-147"/>
			<point x="569" y="-202"/>
			<point x="671" y="-205" type="curve" smooth="yes"/>
		</contour>
		<component base="sinJha"/>
	</outline>
</glyph>
<glyph name="sinKSsa.reph" format="2">
	<advance width="1126"/>
	<outline>
		<contour>
			<point x="911" y="409" type="line"/>
			<point x="947" y="428"/>
			<point x="974" y="464"/>
			<point x="974" y="521" type="curve" smooth="yes"/>
			<point x="974" y="606"/>
			<point x="908" y="667"/>
			<point x="817" y="667" type="curve" smooth="yes"/>
			<point x="721" y="667"/>
			<point x="668" y="598"/>
			<point x="668" y="526" type="curve" smooth="yes"/>
			<point x="668" y="473"/>
			<point x="704" y="430"/>
			<point x="761" y="430" type="curve" smooth="yes"/>
			<point x="809" y="430"/>
			<point x="834" y="462"/>
			<point x="834" y="498" type="curve" smooth="yes"/>
			<point x="834" y="541"/>
			<point x="802" y="573"/>
			<point x="765" y="573" type="curve" smooth="yes"/>
			<point x="721" y="573"/>
			<point x="703" y="534"/>
			<point x="693" y="524" type="curve"/>
			<point x="702" y="511" type="line"/>
			<point x="717" y="520"/>
			<point x="730" y="530"/>
			<point x="762" y="530" type="curve" smooth="yes"/>
			<point x="785" y="530"/>
			<point x="809" y="519"/>
			<point x="809" y="500" type="curve" smooth="yes"/>
			<point x="809" y="476"/>
			<point x="784" y="470"/>
			<point x="765" y="470" type="curve" smooth="yes"/>
			<point x="728" y="470"/>
			<point x="708" y="495"/>
			<point x="708" y="537" type="curve" smooth="yes"/>
			<point x="708" y="586"/>
			<point x="767" y="606"/>
			<point x="817" y="606" type="curve" smooth="yes"/>
			<point x="849" y="606"/>
			<point x="942" y="591"/>
			<point x="942" y="519" type="curve" smooth="yes"/>
			<point x="942" y="479"/>
			<point x="930" y="453"/>
			<point x="893" y="438" type="curve"/>
		</contour>
		<component base="sinKSsa"/>
	</outline>
</glyph>
<glyph name="sinKh.virama" format="2">
	<advance width="662"/>
	<outline>
		<contour>
			<point x="600" y="361" type="line"/>
			<point x="600" y="493"/>
			<point x="555" y="719"/>
			<point x="293" y="719" type="curve" smooth="yes"/>
			<point x="192" y="719"/>
			<point x="140" y="691"/>
			<point x="140" y="691" type="curve"/>
			<point x="127" y="667"/>
			<point x="124" y="641"/>
			<point x="123" y="631" type="curve"/>
			<point x="145" y="641"/>
			<point x="155" y="645"/>
			<point x="182" y="651" type="curve"/>
			<point x="203" y="681" type="line"/>
			<point x="190" y="671"/>
			<point x="174" y="632"/>
			<point x="143" y="563" type="curve"/>
			<point x="183" y="558" type="line"/>
			<point x="201" y="607"/>
			<point x="223" y="664"/>
			<point x="267" y="669" type="curve"/>
			<point x="235" y="670"/>
			<point x="213" y="671"/>
			<point x="186" y="651" type="curve"/>
			<point x="186" y="651"/>
			<point x="200" y="661"/>
			<point x="273" y="661" type="curve" smooth="yes"/>
			<point x="554" y="661"/>
			<point x="555" y="460"/>
			<point x="553" y="412" type="curve"/>
		</contour>
		<component base="sinKha"/>
	</outline>
</glyph>
<glyph name="sinLlIi" format="2">
	<advance width="656"/>
	<outline>
		<contour>
			<point x="309" y="385" type="curve"/>
			<point x="305" y="439" type="line"/>
			<point x="263" y="452"/>
			<point x="220" y="469"/>
			<point x="220" y="518" type="curve" smooth="yes"/>
			<point x="220" y="590"/>
			<point x="319" y="595"/>
			<point x="371" y="595" type="curve" smooth="yes"/>
			<point x="441" y="595"/>
			<point x="524" y="565"/>
			<point x="524" y="516" type="curve" smooth="yes"/>
			<point x="524" y="474"/>
			<point x="504" y="449"/>
			<point x="473" y="449" type="curve" smooth="yes"/>
			<point x="448" y="449"/>
			<point x="423" y="455"/>
			<point x="423" y="479" type="curve" smooth="yes"/>
			<point x="423" y="498"/>
			<point x="447" y="509"/>
			<point x="470" y="509" type="curve" smooth="yes"/>
			<point x="502" y="509"/>
			<point x="515" y="499"/>
			<point x="530" y="490" type="curve"/>
			<point x="539" y="503" type="line"/>
			<point x="529" y="513"/>
			<point x="511" y="552"/>
			<point x="467" y="552" type="curve" smooth="yes"/>
			<point x="430" y="552"/>
			<point x="398" y="520"/>
			<point x="398" y="477" type="curve" smooth="yes"/>
			<point x="398" y="441"/>
			<point x="423" y="409"/>
			<point x="477" y="409" type="curve" smooth="yes"/>
			<point x="528" y="409"/>
			<point x="564" y="452"/>
			<point x="564" y="525" type="curve" smooth="yes"/>
			<point x="564" y="587"/>
			<point x="497" y="656"/>
			<point x="381" y="656" type="curve" smooth="yes"/>
			<point x="270" y="656"/>
			<point x="188" y="595"/>
			<point x="188" y="510" type="curve" smooth="yes"/>
			<point x="188" y="431"/>
			<point x="246" y="393"/>
		</contour>
		<component base="sinLla" yOffset="-20"/>
	</outline>
</glyph>
<glyph name="sinLla.reph" format="2">
	<advance width="656"/>
	<outline>
		<contour>
			<point x="449" y="419" type="line"/>
			<point x="485" y="438"/>
			<point x="512" y="474"/>
			<point x="512" y="531" type="curve" smooth="yes"/>
			<point x="512" y="616"/>
			<point x="446" y="677"/>
			<point x="355" y="677" type="curve" smooth="yes"/>
			<point x="259" y="677"/>
			<point x="206" y="608"/>
			<point x="206" y="536" type="curve" smooth="yes"/>
			<point x="206" y="483"/>
			<point x="242" y="440"/>
			<point x="299" y="440" type="curve" smooth="yes"/>
			<point x="347" y="440"/>
			<point x="372" y="472"/>
			<point x="372" y="508" type="curve" smooth="yes"/>
			<point x="372" y="551"/>
			<point x="340" y="583"/>
			<point x="303" y="583" type="curve" smooth="yes"/>
			<point x="259" y="583"/>
			<point x="241" y="544"/>
			<point x="231" y="534" type="curve"/>
			<point x="240" y="521" type="line"/>
			<point x="255" y="530"/>
			<point x="268" y="540"/>
			<point x="300" y="540" type="curve" smooth="yes"/>
			<point x="323" y="540"/>
			<point x="347" y="529"/>
			<point x="347" y="510" type="curve" smooth="yes"/>
			<point x="347" y="486"/>
			<point x="322" y="480"/>
			<point x="303" y="480" type="curve" smooth="yes"/>
			<point x="266" y="480"/>
			<point x="246" y="505"/>
			<point x="246" y="547" type="curve" smooth="yes"/>
			<point x="246" y="596"/>
			<point x="305" y="616"/>
			<point x="355" y="616" type="curve" smooth="yes"/>
			<point x="387" y="616"/>
			<point x="480" y="601"/>
			<point x="480" y="529" type="curve" smooth="yes"/>
			<point x="480" y="489"/>
			<point x="468" y="463"/>
			<point x="431" y="448" type="curve"/>
		</contour>
		<component base="sinLla"/>
	</outline>
</glyph>
<glyph name="sinM.virama" format="2">
	<advance width="646"/>
	<anchor x="610" y="273" name="rakaransaya"/>
	<outline>
		<contour>
			<point x="604" y="370" type="line"/>
			<point x="604" y="513"/>
			<point x="549" y="729"/>
			<point x="308" y="729" type="curve" smooth="yes"/>
			<point x="217" y="729"/>
			<point x="145" y="693"/>
			<point x="145" y="693" type="curve"/>
			<point x="132" y="669"/>
			<point x="128" y="643"/>
			<point x="127" y="633" type="curve"/>
			<point x="149" y="648"/>
			<point x="179" y="656"/>
			<point x="206" y="661" type="curve"/>
			<point x="234" y="691" type="line"/>
			<point x="200" y="681"/>
			<point x="149" y="619"/>
			<point x="149" y="567" type="curve"/>
			<point x="177" y="552" type="line"/>
			<point x="177" y="606"/>
			<point x="248" y="674"/>
			<point x="282" y="679" type="curve"/>
			<point x="211" y="662" type="line"/>
			<point x="211" y="662"/>
			<point x="225" y="671"/>
			<point x="287" y="671" type="curve" smooth="yes"/>
			<point x="529" y="671"/>
			<point x="568" y="480"/>
			<point x="567" y="432" type="curve"/>
		</contour>
		<component base="sinMa"/>
		<contour>
			<point x="604" y="370" type="line"/>
			<point x="604" y="513"/>
			<point x="549" y="729"/>
			<point x="308" y="729" type="curve" smooth="yes"/>
			<point x="217" y="729"/>
			<point x="145" y="693"/>
			<point x="145" y="693" type="curve"/>
			<point x="132" y="669"/>
			<point x="128" y="643"/>
			<point x="127" y="633" type="curve"/>
			<point x="149" y="648"/>
			<point x="179" y="656"/>
			<point x="206" y="661" type="curve"/>
			<point x="234" y="691" type="line"/>
			<point x="200" y="681"/>
			<point x="149" y="619"/>
			<point x="149" y="567" type="curve"/>
			<point x="177" y="552" type="line"/>
			<point x="177" y="606"/>
			<point x="248" y="674"/>
			<point x="282" y="679" type="curve"/>
			<point x="211" y="662" type="line"/>
			<point x="211" y="662"/>
			<point x="225" y="671"/>
			<point x="287" y="671" type="curve" smooth="yes"/>
			<point x="529" y="671"/>
			<point x="568" y="480"/>
			<point x="567" y="432" type="curve"/>
		</contour>
	</outline>
</glyph>
<glyph name="sinMatraUu.sub" format="2">
	<advance width="299"/>
	<outline>
		<contour>
			<point x="177" y="-215" type="curve" smooth="yes"/>
			<point x="235" y="-215"/>
			<point x="266" y="-176"/>
			<point x="277" y="-156" type="curve"/>
			<point x="276" y="-144"/>
			<point x="273" y="-136"/>
			<point x="268" y="-132" type="curve"/>
			<point x="256" y="-144"/>
			<point x="221" y="-153"/>
			<point x="183" y="-153" type="curve" smooth="yes"/>
			<point x="132" y="-153"/>
			<point x="100" y="-120"/>
			<point x="100" y="-74" type="curve" smooth="yes"/>
			<point x="100" y="9"/>
			<point x="126" y="56"/>
			<point x="186" y="82" type="curve"/>
			<point x="189" y="92"/>
			<point x="192" y="100"/>
			<point x="192" y="116" type="curve" smooth="yes"/>
			<point x="192" y="123"/>
			<point x="192" y="130"/>
			<point x="190" y="136" type="curve"/>
			<point x="25" y="130" type="line"/>
			<point x="22" y="122"/>
			<point x="20" y="117"/>
			<point x="20" y="100" type="curve" smooth="yes"/>
			<point x="20" y="91"/>
			<point x="21" y="83"/>
			<point x="23" y="77" type="curve"/>
			<point x="117" y="82" type="line"/>
			<point x="89" y="38"/>
			<point x="56" y="-11"/>
			<point x="56" y="-74" type="curve" smooth="yes"/>
			<point x="56" y="-165"/>
			<point x="103" y="-215"/>
		</contour>
	</outline>
</glyph>
<glyph name="sinMb.virama" format="2">
	<advance width="716"/>
	<outline>
		<contour>
			<point x="654" y="370" type="line"/>
			<point x="654" y="513"/>
			<point x="629" y="729"/>
			<point x="308" y="729" type="curve" smooth="yes"/>
			<point x="217" y="729"/>
			<point x="145" y="693"/>
			<point x="145" y="693" type="curve"/>
			<point x="132" y="669"/>
			<point x="128" y="643"/>
			<point x="127" y="633" type="curve"/>
			<point x="149" y="647"/>
			<point x="179" y="655"/>
			<point x="206" y="661" type="curve"/>
			<point x="234" y="691" type="line"/>
			<point x="200" y="681"/>
			<point x="149" y="619"/>
			<point x="149" y="567" type="curve"/>
			<point x="177" y="552" type="line"/>
			<point x="177" y="606"/>
			<point x="248" y="674"/>
			<point x="282" y="679" type="curve"/>
			<point x="211" y="662" type="line"/>
			<point x="211" y="662"/>
			<point x="257" y="675"/>
			<point x="319" y="675" type="curve" smooth="yes"/>
			<point x="611" y="675"/>
			<point x="618" y="480"/>
			<point x="617" y="432" type="curve"/>
		</contour>
		<component base="sinMba"/>
	</outline>
</glyph>
<glyph name="sinNDa.reph" format="2">
	<advance width="887"/>
	<outline>
		<contour>
			<point x="579" y="429" type="line"/>
			<point x="615" y="448"/>
			<point x="642" y="484"/>
			<point x="642" y="541" type="curve" smooth="yes"/>
			<point x="642" y="626"/>
			<point x="576" y="687"/>
			<point x="485" y="687" type="curve" smooth="yes"/>
			<point x="389" y="687"/>
			<point x="336" y="618"/>
			<point x="336" y="546" type="curve" smooth="yes"/>
			<point x="336" y="493"/>
			<point x="372" y="450"/>
			<point x="429" y="450" type="curve" smooth="yes"/>
			<point x="477" y="450"/>
			<point x="502" y="482"/>
			<point x="502" y="518" type="curve" smooth="yes"/>
			<point x="502" y="561"/>
			<point x="470" y="593"/>
			<point x="433" y="593" type="curve" smooth="yes"/>
			<point x="389" y="593"/>
			<point x="371" y="554"/>
			<point x="361" y="544" type="curve"/>
			<point x="370" y="531" type="line"/>
			<point x="385" y="540"/>
			<point x="398" y="550"/>
			<point x="430" y="550" type="curve" smooth="yes"/>
			<point x="453" y="550"/>
			<point x="477" y="539"/>
			<point x="477" y="520" type="curve" smooth="yes"/>
			<point x="477" y="496"/>
			<point x="452" y="490"/>
			<point x="433" y="490" type="curve" smooth="yes"/>
			<point x="396" y="490"/>
			<point x="376" y="515"/>
			<point x="376" y="557" type="curve" smooth="yes"/>
			<point x="376" y="606"/>
			<point x="435" y="626"/>
			<point x="485" y="626" type="curve" smooth="yes"/>
			<point x="517" y="626"/>
			<point x="610" y="611"/>
			<point x="610" y="539" type="curve" smooth="yes"/>
			<point x="610" y="499"/>
			<point x="598" y="473"/>
			<point x="561" y="458" type="curve"/>
		</contour>
		<component base="sinNDa"/>
	</outline>
</glyph>
<glyph name="sinNDhI" format="2">
	<advance width="1090"/>
	<outline>
		<contour>
			<point x="863" y="-16" type="curve" smooth="yes"/>
			<point x="999" y="-16"/>
			<point x="1041" y="113"/>
			<point x="1041" y="232" type="curve" smooth="yes"/>
			<point x="1041" y="442"/>
			<point x="898" y="521"/>
			<point x="761" y="521" type="curve" smooth="yes"/>
			<point x="670" y="521"/>
			<point x="643" y="509"/>
			<point x="587" y="509" type="curve" smooth="yes"/>
			<point x="559" y="509"/>
			<point x="541" y="526"/>
			<point x="541" y="552" type="curve" smooth="yes"/>
			<point x="541" y="586"/>
			<point x="586" y="622"/>
			<point x="756" y="622" type="curve" smooth="yes"/>
			<point x="838" y="622"/>
			<point x="946" y="604"/>
			<point x="946" y="556" type="curve" smooth="yes"/>
			<point x="946" y="528"/>
			<point x="909" y="509"/>
			<point x="871" y="509" type="curve" smooth="yes"/>
			<point x="862" y="509"/>
			<point x="852" y="510"/>
			<point x="843" y="512" type="curve"/>
			<point x="857" y="461" type="line"/>
			<point x="888" y="460" type="line" smooth="yes"/>
			<point x="921" y="460"/>
			<point x="976" y="502"/>
			<point x="976" y="558" type="curve" smooth="yes"/>
			<point x="976" y="631"/>
			<point x="906" y="695"/>
			<point x="741" y="695" type="curve" smooth="yes"/>
			<point x="610" y="695"/>
			<point x="508" y="630"/>
			<point x="508" y="531" type="curve" smooth="yes"/>
			<point x="508" y="490"/>
			<point x="533" y="448"/>
			<point x="606" y="448" type="curve" smooth="yes"/>
			<point x="657" y="448"/>
			<point x="685" y="460"/>
			<point x="763" y="460" type="curve" smooth="yes"/>
			<point x="881" y="460"/>
			<point x="998" y="402"/>
			<point x="998" y="233" type="curve" smooth="yes"/>
			<point x="998" y="130"/>
			<point x="952" y="65"/>
			<point x="857" y="65" type="curve" smooth="yes"/>
			<point x="826" y="65"/>
			<point x="776" y="80"/>
			<point x="776" y="142" type="curve" smooth="yes"/>
			<point x="776" y="147"/>
			<point x="776" y="152"/>
			<point x="777" y="158" type="curve"/>
			<point x="758" y="154" type="line"/>
			<point x="742" y="111"/>
			<point x="710" y="69"/>
			<point x="641" y="69" type="curve" smooth="yes"/>
			<point x="563" y="69"/>
			<point x="523" y="118"/>
			<point x="523" y="174" type="curve" smooth="yes"/>
			<point x="523" y="243"/>
			<point x="577" y="316"/>
			<point x="676" y="316" type="curve" smooth="yes"/>
			<point x="710" y="316"/>
			<point x="728" y="313"/>
			<point x="755" y="307" type="curve"/>
			<point x="766" y="320" type="line"/>
			<point x="765" y="339"/>
			<point x="762" y="351"/>
			<point x="754" y="362" type="curve"/>
			<point x="743" y="363"/>
			<point x="731" y="364"/>
			<point x="710" y="364" type="curve" smooth="yes"/>
			<point x="588" y="364"/>
			<point x="485" y="291"/>
			<point x="485" y="153" type="curve" smooth="yes"/>
			<point x="485" y="50"/>
			<point x="540" y="-15"/>
			<point x="638" y="-15" type="curve" smooth="yes"/>
			<point x="723" y="-15"/>
			<point x="759" y="48"/>
			<point x="764" y="83" type="curve"/>
			<point x="765" y="83"/>
			<point x="756" y="92"/>
			<point x="756" y="102" type="curve" smooth="yes"/>
			<point x="756" y="105" type="line"/>
			<point x="755" y="99"/>
			<point x="754" y="93"/>
			<point x="754" y="87" type="curve" smooth="yes"/>
			<point x="754" y="39"/>
			<point x="789" y="-16"/>
		</contour>
		<contour>
			<point x="270" y="66" type="curve" smooth="yes"/>
			<point x="186" y="66"/>
			<point x="129" y="78"/>
			<point x="101" y="115" type="curve"/>
			<point x="98" y="103" type="line"/>
			<point x="192" y="104"/>
			<point x="223" y="240"/>
			<point x="380" y="240" type="curve" smooth="yes"/>
			<point x="440" y="240"/>
			<point x="476" y="223"/>
			<point x="476" y="187" type="curve" smooth="yes"/>
			<point x="476" y="106"/>
			<point x="367" y="66"/>
		</contour>
		<contour>
			<point x="272" y="275" type="line"/>
			<point x="293" y="294"/>
			<point x="338" y="363"/>
			<point x="338" y="401" type="curve" smooth="yes"/>
			<point x="338" y="438"/>
			<point x="311" y="457"/>
			<point x="260" y="457" type="curve" smooth="yes"/>
			<point x="182" y="457"/>
			<point x="105" y="407"/>
			<point x="105" y="331" type="curve" smooth="yes"/>
			<point x="105" y="303"/>
			<point x="122" y="286"/>
			<point x="156" y="286" type="curve" smooth="yes"/>
			<point x="169" y="286"/>
			<point x="186" y="289"/>
			<point x="196" y="294" type="curve"/>
			<point x="189" y="303"/>
			<point x="181" y="323"/>
			<point x="181" y="350" type="curve" smooth="yes"/>
			<point x="181" y="388"/>
			<point x="206" y="423"/>
			<point x="242" y="423" type="curve" smooth="yes"/>
			<point x="270" y="423"/>
			<point x="292" y="400"/>
			<point x="292" y="367" type="curve" smooth="yes"/>
			<point x="292" y="364"/>
			<point x="291" y="361"/>
			<point x="291" y="357" type="curve" smooth="yes"/>
			<point x="287" y="327"/>
			<point x="276" y="298"/>
			<point x="264" y="282" type="curve"/>
		</contour>
		<contour>
			<point x="266" y="-15" type="curve" smooth="yes"/>
			<point x="413" y="-15"/>
			<point x="506" y="69"/>
			<point x="504" y="201" type="curve" smooth="yes"/>
			<point x="504" y="265"/>
			<point x="467" y="303"/>
			<point x="407" y="303" type="curve" smooth="yes"/>
			<point x="354" y="303"/>
			<point x="289" y="259"/>
			<point x="232" y="213" type="curve"/>
			<point x="228" y="197" type="line"/>
			<point x="231" y="203"/>
			<point x="276" y="256"/>
			<point x="290" y="270" type="curve" smooth="yes"/>
			<point x="342" y="316"/>
			<point x="443" y="360"/>
			<point x="549" y="360" type="curve" smooth="yes"/>
			<point x="600" y="360"/>
			<point x="641" y="350"/>
			<point x="679" y="326" type="curve"/>
			<point x="754" y="362" type="line"/>
			<point x="697" y="390"/>
			<point x="660" y="416"/>
			<point x="553" y="416" type="curve" smooth="yes"/>
			<point x="443" y="416"/>
			<point x="342" y="366"/>
			<point x="276" y="295" type="curve" smooth="yes"/>
			<point x="229" y="244"/>
			<point x="156" y="131"/>
			<point x="109" y="131" type="curve" smooth="yes"/>
			<point x="92" y="131"/>
			<point x="85" y="140"/>
			<point x="85" y="155" type="curve" smooth="yes"/>
			<point x="85" y="159"/>
			<point x="86" y="164"/>
			<point x="87" y="169" type="curve"/>
			<point x="85" y="170"/>
			<point x="78" y="171"/>
			<point x="72" y="171" type="curve" smooth="yes"/>
			<point x="64" y="171"/>
			<point x="55" y="170"/>
			<point x="50" y="168" type="curve"/>
			<point x="59" y="83"/>
			<point x="130" y="-15"/>
		</contour>
	</outline>
</glyph>
<glyph name="sinNThU" format="2">
	<advance width="1037"/>
	<outline>
		<contour>
			<point x="257" y="-15" type="curve" smooth="yes"/>
			<point x="404" y="-15"/>
			<point x="497" y="69"/>
			<point x="495" y="201" type="curve" smooth="yes"/>
			<point x="495" y="265"/>
			<point x="458" y="303"/>
			<point x="398" y="303" type="curve" smooth="yes"/>
			<point x="345" y="303"/>
			<point x="280" y="259"/>
			<point x="223" y="213" type="curve"/>
			<point x="219" y="197" type="line"/>
			<point x="222" y="203"/>
			<point x="287" y="256"/>
			<point x="301" y="270" type="curve" smooth="yes"/>
			<point x="353" y="316"/>
			<point x="385" y="395"/>
			<point x="515" y="395" type="curve" smooth="yes"/>
			<point x="583" y="395"/>
			<point x="618" y="367"/>
			<point x="636" y="313" type="curve"/>
			<point x="674" y="380" type="line"/>
			<point x="636" y="428"/>
			<point x="594" y="460"/>
			<point x="520" y="460" type="curve" smooth="yes"/>
			<point x="406" y="460"/>
			<point x="333" y="366"/>
			<point x="267" y="295" type="curve" smooth="yes"/>
			<point x="220" y="244"/>
			<point x="147" y="131"/>
			<point x="100" y="131" type="curve" smooth="yes"/>
			<point x="83" y="131"/>
			<point x="76" y="140"/>
			<point x="76" y="155" type="curve" smooth="yes"/>
			<point x="76" y="159"/>
			<point x="77" y="164"/>
			<point x="78" y="169" type="curve"/>
			<point x="76" y="170"/>
			<point x="69" y="171"/>
			<point x="63" y="171" type="curve" smooth="yes"/>
			<point x="55" y="171"/>
			<point x="46" y="170"/>
			<point x="41" y="168" type="curve"/>
			<point x="50" y="83"/>
			<point x="121" y="-15"/>
		</contour>
		<contour>
			<point x="261" y="66" type="curve" smooth="yes"/>
			<point x="177" y="66"/>
			<point x="120" y="78"/>
			<point x="92" y="115" type="curve"/>
			<point x="89" y="103" type="line"/>
			<point x="183" y="104"/>
			<point x="214" y="240"/>
			<point x="371" y="240" type="curve" smooth="yes"/>
			<point x="431" y="240"/>
			<point x="467" y="223"/>
			<point x="467" y="187" type="curve" smooth="yes"/>
			<point x="467" y="106"/>
			<point x="358" y="66"/>
		</contour>
		<contour>
			<point x="263" y="275" type="line"/>
			<point x="284" y="294"/>
			<point x="329" y="363"/>
			<point x="329" y="401" type="curve" smooth="yes"/>
			<point x="329" y="438"/>
			<point x="302" y="457"/>
			<point x="251" y="457" type="curve" smooth="yes"/>
			<point x="173" y="457"/>
			<point x="96" y="407"/>
			<point x="96" y="331" type="curve" smooth="yes"/>
			<point x="96" y="303"/>
			<point x="113" y="286"/>
			<point x="147" y="286" type="curve" smooth="yes"/>
			<point x="160" y="286"/>
			<point x="177" y="289"/>
			<point x="187" y="294" type="curve"/>
			<point x="180" y="303"/>
			<point x="172" y="323"/>
			<point x="172" y="350" type="curve" smooth="yes"/>
			<point x="172" y="388"/>
			<point x="197" y="423"/>
			<point x="233" y="423" type="curve" smooth="yes"/>
			<point x="261" y="423"/>
			<point x="283" y="400"/>
			<point x="283" y="367" type="curve" smooth="yes"/>
			<point x="283" y="364"/>
			<point x="282" y="361"/>
			<point x="282" y="357" type="curve" smooth="yes"/>
			<point x="278" y="327"/>
			<point x="267" y="298"/>
			<point x="255" y="282" type="curve"/>
		</contour>
		<component base="sinThU" xOffset="428"/>
	</outline>
</glyph>
<glyph name="sinNTha.reph" format="2">
	<advance width="1029"/>
	<outline>
		<contour>
			<point x="575" y="419" type="line"/>
			<point x="611" y="438"/>
			<point x="638" y="474"/>
			<point x="638" y="531" type="curve" smooth="yes"/>
			<point x="638" y="616"/>
			<point x="572" y="677"/>
			<point x="481" y="677" type="curve" smooth="yes"/>
			<point x="385" y="677"/>
			<point x="332" y="608"/>
			<point x="332" y="536" type="curve" smooth="yes"/>
			<point x="332" y="483"/>
			<point x="368" y="440"/>
			<point x="425" y="440" type="curve" smooth="yes"/>
			<point x="473" y="440"/>
			<point x="498" y="472"/>
			<point x="498" y="508" type="curve" smooth="yes"/>
			<point x="498" y="551"/>
			<point x="466" y="583"/>
			<point x="429" y="583" type="curve" smooth="yes"/>
			<point x="385" y="583"/>
			<point x="367" y="544"/>
			<point x="357" y="534" type="curve"/>
			<point x="366" y="521" type="line"/>
			<point x="381" y="530"/>
			<point x="394" y="540"/>
			<point x="426" y="540" type="curve" smooth="yes"/>
			<point x="449" y="540"/>
			<point x="473" y="529"/>
			<point x="473" y="510" type="curve" smooth="yes"/>
			<point x="473" y="486"/>
			<point x="448" y="480"/>
			<point x="429" y="480" type="curve" smooth="yes"/>
			<point x="392" y="480"/>
			<point x="372" y="505"/>
			<point x="372" y="547" type="curve" smooth="yes"/>
			<point x="372" y="596"/>
			<point x="431" y="616"/>
			<point x="481" y="616" type="curve" smooth="yes"/>
			<point x="513" y="616"/>
			<point x="606" y="601"/>
			<point x="606" y="529" type="curve" smooth="yes"/>
			<point x="606" y="489"/>
			<point x="594" y="463"/>
			<point x="557" y="448" type="curve"/>
		</contour>
		<component base="sinNTha"/>
	</outline>
</glyph>
<glyph name="sinNVa.reph" format="2">
	<advance width="1070"/>
	<outline>
		<contour>
			<point x="459" y="370" type="line"/>
			<point x="495" y="389"/>
			<point x="522" y="425"/>
			<point x="522" y="482" type="curve" smooth="yes"/>
			<point x="522" y="567"/>
			<point x="456" y="628"/>
			<point x="365" y="628" type="curve" smooth="yes"/>
			<point x="269" y="628"/>
			<point x="216" y="566"/>
			<point x="216" y="494" type="curve" smooth="yes"/>
			<point x="216" y="441"/>
			<point x="252" y="398"/>
			<point x="309" y="398" type="curve" smooth="yes"/>
			<point x="357" y="398"/>
			<point x="382" y="430"/>
			<point x="382" y="466" type="curve" smooth="yes"/>
			<point x="382" y="509"/>
			<point x="350" y="541"/>
			<point x="313" y="541" type="curve" smooth="yes"/>
			<point x="269" y="541"/>
			<point x="251" y="502"/>
			<point x="241" y="492" type="curve"/>
			<point x="250" y="479" type="line"/>
			<point x="265" y="488"/>
			<point x="278" y="498"/>
			<point x="310" y="498" type="curve" smooth="yes"/>
			<point x="333" y="498"/>
			<point x="357" y="487"/>
			<point x="357" y="468" type="curve" smooth="yes"/>
			<point x="357" y="444"/>
			<point x="332" y="438"/>
			<point x="313" y="438" type="curve" smooth="yes"/>
			<point x="276" y="438"/>
			<point x="256" y="463"/>
			<point x="256" y="495" type="curve" smooth="yes"/>
			<point x="256" y="554"/>
			<point x="315" y="571"/>
			<point x="365" y="571" type="curve" smooth="yes"/>
			<point x="407" y="571"/>
			<point x="490" y="552"/>
			<point x="490" y="480" type="curve" smooth="yes"/>
			<point x="490" y="440"/>
			<point x="478" y="414"/>
			<point x="441" y="399" type="curve"/>
		</contour>
		<component base="sinNVa"/>
	</outline>
</glyph>
<glyph name="sinNg.virama" format="2">
	<advance width="656"/>
	<outline>
		<contour>
			<point x="589" y="369" type="line"/>
			<point x="589" y="512"/>
			<point x="554" y="718"/>
			<point x="293" y="718" type="curve" smooth="yes"/>
			<point x="201" y="718"/>
			<point x="129" y="683"/>
			<point x="129" y="683" type="curve"/>
			<point x="116" y="659"/>
			<point x="113" y="633"/>
			<point x="112" y="623" type="curve"/>
			<point x="134" y="638"/>
			<point x="164" y="640"/>
			<point x="191" y="650" type="curve"/>
			<point x="213" y="680" type="line"/>
			<point x="199" y="670"/>
			<point x="163" y="635"/>
			<point x="132" y="566" type="curve"/>
			<point x="172" y="561" type="line"/>
			<point x="190" y="610"/>
			<point x="233" y="663"/>
			<point x="266" y="668" type="curve"/>
			<point x="244" y="669"/>
			<point x="222" y="670"/>
			<point x="196" y="650" type="curve"/>
			<point x="196" y="650"/>
			<point x="209" y="660"/>
			<point x="272" y="660" type="curve" smooth="yes"/>
			<point x="554" y="660"/>
			<point x="553" y="479"/>
			<point x="551" y="431" type="curve"/>
		</contour>
		<component base="sinNga"/>
	</outline>
</glyph>
<glyph name="sinNnU" format="2">
	<advance width="958"/>
	<outline>
		<contour>
			<point x="327" y="-201" type="curve" smooth="yes"/>
			<point x="893" y="-201" type="line"/>
			<point x="897" y="215" type="line"/>
			<point x="867" y="213" type="line"/>
			<point x="845" y="-133" type="line"/>
			<point x="672" y="-147"/>
			<point x="462" y="-159"/>
			<point x="345" y="-157" type="curve" smooth="yes"/>
			<point x="273" y="-156"/>
			<point x="251" y="-105"/>
			<point x="251" y="-78" type="curve"/>
			<point x="248" y="-77"/>
			<point x="245" y="-77"/>
			<point x="242" y="-77" type="curve" smooth="yes"/>
			<point x="219" y="-77"/>
			<point x="187" y="-91"/>
			<point x="177" y="-101" type="curve"/>
			<point x="185" y="-143"/>
			<point x="225" y="-201"/>
		</contour>
		<component base="sinNna" xOffset="11"/>
	</outline>
</glyph>
<glyph name="sinNyjI" format="2">
	<advance width="746"/>
	<outline>
		<contour>
			<point x="489" y="420" type="curve" smooth="yes"/>
			<point x="501" y="420"/>
			<point x="511" y="424"/>
			<point x="524" y="433" type="curve"/>
			<point x="542" y="462" type="line"/>
			<point x="536" y="461"/>
			<point x="544" y="460"/>
			<point x="520" y="460" type="curve" smooth="yes"/>
			<point x="492" y="460"/>
			<point x="417" y="483"/>
			<point x="417" y="548" type="curve" smooth="yes"/>
			<point x="417" y="612"/>
			<point x="467" y="640"/>
			<point x="532" y="640" type="curve" smooth="yes"/>
			<point x="582" y="640"/>
			<point x="652" y="613"/>
			<point x="656" y="584" type="curve"/>
			<point x="687" y="590" type="line"/>
			<point x="687" y="596"/>
			<point x="681" y="615"/>
			<point x="675" y="627" type="curve" smooth="yes"/>
			<point x="670" y="637"/>
			<point x="642" y="704"/>
			<point x="541" y="704" type="curve" smooth="yes"/>
			<point x="457" y="704"/>
			<point x="379" y="652"/>
			<point x="379" y="550" type="curve" smooth="yes"/>
			<point x="379" y="471"/>
			<point x="439" y="420"/>
		</contour>
		<component base="sinNyja"/>
	</outline>
</glyph>
<glyph name="sinOnelith" format="2">
	<advance width="670"/>
	<outline>
		<contour>
			<point x="263" y="0" type="curve" smooth="yes"/>
			<point x="403" y="0"/>
			<point x="479" y="66"/>
			<point x="479" y="164" type="curve" smooth="yes"/>
			<point x="479" y="262"/>
			<point x="397" y="314"/>
			<point x="297" y="314" type="curve" smooth="yes"/>
			<point x="242" y="314"/>
			<point x="198" y="283"/>
			<point x="198" y="236" type="curve" smooth="yes"/>
			<point x="198" y="193"/>
			<point x="240" y="162"/>
			<point x="285" y="162" type="curve" smooth="yes"/>
			<point x="327" y="162"/>
			<point x="370" y="187"/>
			<point x="370" y="234" type="curve" smooth="yes"/>
			<point x="370" y="250"/>
			<point x="365" y="266"/>
			<point x="352" y="280" type="curve"/>
			<point x="400" y="271"/>
			<point x="444" y="239"/>
			<point x="444" y="185" type="curve" smooth="yes"/>
			<point x="444" y="103"/>
			<point x="350" y="69"/>
			<point x="263" y="69" type="curve" smooth="yes"/>
			<point x="159" y="69"/>
			<point x="74" y="138"/>
			<point x="74" y="222" type="curve" smooth="yes"/>
			<point x="74" y="332"/>
			<point x="183" y="388"/>
			<point x="294" y="388" type="curve" smooth="yes"/>
			<point x="450" y="388"/>
			<point x="597" y="299"/>
			<point x="597" y="0" type="curve"/>
			<point x="626" y="0" type="line"/>
			<point x="626" y="306"/>
			<point x="471" y="422"/>
			<point x="294" y="422" type="curve" smooth="yes"/>
			<point x="157" y="422"/>
			<point x="32" y="339"/>
			<point x="32" y="207" type="curve" smooth="yes"/>
			<point x="32" y="82"/>
			<point x="131" y="0"/>
		</contour>
		<contour>
			<point x="284" y="193" type="curve" smooth="yes"/>
			<point x="255" y="193"/>
			<point x="230" y="214"/>
			<point x="230" y="239" type="curve" smooth="yes"/>
			<point x="230" y="264"/>
			<point x="255" y="285"/>
			<point x="284" y="285" type="curve" smooth="yes"/>
			<point x="313" y="285"/>
			<point x="338" y="264"/>
			<point x="338" y="239" type="curve" smooth="yes"/>
			<point x="338" y="214"/>
			<point x="313" y="193"/>
		</contour>
	</outline>
</glyph>
<glyph name="sinPI" format="2">
	<advance width="616"/>
	<outline>
		<contour>
			<point x="426" y="421" type="line"/>
			<point x="488" y="424"/>
			<point x="528" y="468"/>
			<point x="528" y="532" type="curve" smooth="yes"/>
			<point x="528" y="615"/>
			<point x="454" y="682"/>
			<point x="312" y="682" type="curve" smooth="yes"/>
			<point x="195" y="682"/>
			<point x="78" y="624"/>
			<point x="78" y="521" type="curve" smooth="yes"/>
			<point x="78" y="460"/>
			<point x="122" y="425"/>
			<point x="167" y="425" type="curve"/>
			<point x="184" y="459" type="line"/>
			<point x="154" y="462"/>
			<point x="112" y="484"/>
			<point x="112" y="523" type="curve" smooth="yes"/>
			<point x="112" y="580"/>
			<point x="202" y="603"/>
			<point x="300" y="603" type="curve" smooth="yes"/>
			<point x="377" y="603"/>
			<point x="493" y="592"/>
			<point x="493" y="530" type="curve" smooth="yes"/>
			<point x="493" y="491"/>
			<point x="454" y="468"/>
			<point x="400" y="452" type="curve"/>
		</contour>
		<component base="sinPa" xOffset="-9"/>
	</outline>
</glyph>
<glyph name="sinPRa" format="2">
	<advance width="625"/>
	<outline>
		<contour>
			<point x="305" y="-216" type="curve" smooth="yes"/>
			<point x="574" y="-216"/>
			<point x="580" y="55"/>
			<point x="580" y="193" type="curve"/>
			<point x="557" y="179" type="line"/>
			<point x="546" y="30"/>
			<point x="518" y="-139"/>
			<point x="309" y="-139" type="curve" smooth="yes"/>
			<point x="152" y="-139"/>
			<point x="78" y="-68"/>
			<point x="78" y="-68" type="curve"/>
			<point x="67" y="-71"/>
			<point x="60" y="-77"/>
			<point x="55" y="-84" type="curve"/>
			<point x="59" y="-104"/>
			<point x="128" y="-216"/>
		</contour>
		<component base="sinPa"/>
	</outline>
</glyph>
<glyph name="sinPU" format="2">
	<advance width="625"/>
	<outline>
		<contour>
			<point x="569" y="-215" type="line"/>
			<point x="564" y="201" type="line"/>
			<point x="537" y="199" type="line"/>
			<point x="519" y="-138" type="line"/>
			<point x="446" y="-155"/>
			<point x="368" y="-160"/>
			<point x="296" y="-160" type="curve" smooth="yes"/>
			<point x="266" y="-160"/>
			<point x="237" y="-159"/>
			<point x="209" y="-158" type="curve" smooth="yes"/>
			<point x="157" y="-155"/>
			<point x="135" y="-109"/>
			<point x="135" y="-82" type="curve"/>
			<point x="132" y="-81"/>
			<point x="129" y="-81"/>
			<point x="126" y="-81" type="curve" smooth="yes"/>
			<point x="103" y="-81"/>
			<point x="71" y="-95"/>
			<point x="61" y="-105" type="curve"/>
			<point x="69" y="-147"/>
			<point x="109" y="-202"/>
			<point x="211" y="-205" type="curve" smooth="yes"/>
		</contour>
		<component base="sinPa" yOffset="-8"/>
	</outline>
</glyph>
<glyph name="sinPa.reph" format="2">
	<advance width="625"/>
	<outline>
		<contour>
			<point x="419" y="419" type="line"/>
			<point x="455" y="438"/>
			<point x="482" y="474"/>
			<point x="482" y="531" type="curve" smooth="yes"/>
			<point x="482" y="616"/>
			<point x="416" y="677"/>
			<point x="325" y="677" type="curve" smooth="yes"/>
			<point x="229" y="677"/>
			<point x="176" y="608"/>
			<point x="176" y="536" type="curve" smooth="yes"/>
			<point x="176" y="483"/>
			<point x="212" y="440"/>
			<point x="269" y="440" type="curve" smooth="yes"/>
			<point x="317" y="440"/>
			<point x="342" y="472"/>
			<point x="342" y="508" type="curve" smooth="yes"/>
			<point x="342" y="551"/>
			<point x="310" y="583"/>
			<point x="273" y="583" type="curve" smooth="yes"/>
			<point x="229" y="583"/>
			<point x="211" y="544"/>
			<point x="201" y="534" type="curve"/>
			<point x="210" y="521" type="line"/>
			<point x="225" y="530"/>
			<point x="238" y="540"/>
			<point x="270" y="540" type="curve" smooth="yes"/>
			<point x="293" y="540"/>
			<point x="317" y="529"/>
			<point x="317" y="510" type="curve" smooth="yes"/>
			<point x="317" y="486"/>
			<point x="292" y="480"/>
			<point x="273" y="480" type="curve" smooth="yes"/>
			<point x="236" y="480"/>
			<point x="216" y="505"/>
			<point x="216" y="547" type="curve" smooth="yes"/>
			<point x="216" y="596"/>
			<point x="275" y="616"/>
			<point x="325" y="616" type="curve" smooth="yes"/>
			<point x="357" y="616"/>
			<point x="450" y="601"/>
			<point x="450" y="529" type="curve" smooth="yes"/>
			<point x="450" y="489"/>
			<point x="438" y="463"/>
			<point x="401" y="448" type="curve"/>
		</contour>
		<component base="sinPa"/>
	</outline>
</glyph>
<glyph name="sinPfIi" format="2">
	<advance width="655"/>
	<outline>
		<contour>
			<point x="315" y="-20" type="curve" smooth="yes"/>
			<point x="498" y="-20"/>
			<point x="615" y="70"/>
			<point x="615" y="193" type="curve" smooth="yes"/>
			<point x="615" y="283"/>
			<point x="504" y="330"/>
			<point x="423" y="330" type="curve" smooth="yes"/>
			<point x="384" y="330"/>
			<point x="387" y="322"/>
			<point x="364" y="311" type="curve"/>
			<point x="433" y="287" type="line"/>
			<point x="425" y="298"/>
			<point x="409" y="314"/>
			<point x="409" y="353" type="curve" smooth="yes"/>
			<point x="409" y="401"/>
			<point x="450" y="416"/>
			<point x="478" y="416" type="curve" smooth="yes"/>
			<point x="521" y="416"/>
			<point x="557" y="392"/>
			<point x="557" y="355" type="curve" smooth="yes"/>
			<point x="557" y="319"/>
			<point x="487" y="306"/>
			<point x="482" y="299" type="curve"/>
			<point x="493" y="283" type="line"/>
			<point x="519" y="293"/>
			<point x="604" y="319"/>
			<point x="604" y="374" type="curve" smooth="yes"/>
			<point x="604" y="417"/>
			<point x="567" y="463"/>
			<point x="500" y="463" type="curve" smooth="yes"/>
			<point x="412" y="463"/>
			<point x="367" y="397"/>
			<point x="367" y="300" type="curve" smooth="yes"/>
			<point x="367" y="288"/>
			<point x="368" y="276"/>
			<point x="369" y="264" type="curve"/>
			<point x="379" y="256" type="line"/>
			<point x="412" y="270"/>
			<point x="446" y="276"/>
			<point x="481" y="276" type="curve" smooth="yes"/>
			<point x="535" y="276"/>
			<point x="578" y="259"/>
			<point x="578" y="204" type="curve" smooth="yes"/>
			<point x="578" y="127"/>
			<point x="484" y="70"/>
			<point x="320" y="70" type="curve" smooth="yes"/>
			<point x="154" y="70"/>
			<point x="64" y="116"/>
			<point x="64" y="179" type="curve" smooth="yes"/>
			<point x="64" y="239"/>
			<point x="121" y="268"/>
			<point x="207" y="268" type="curve" smooth="yes"/>
			<point x="226" y="268"/>
			<point x="247" y="266"/>
			<point x="269" y="263" type="curve"/>
			<point x="280" y="275" type="line"/>
			<point x="284" y="292"/>
			<point x="286" y="312"/>
			<point x="286" y="332" type="curve" smooth="yes"/>
			<point x="286" y="394"/>
			<point x="261" y="461"/>
			<point x="168" y="461" type="curve" smooth="yes"/>
			<point x="107" y="461"/>
			<point x="69" y="427"/>
			<point x="69" y="390" type="curve" smooth="yes"/>
			<point x="69" y="353"/>
			<point x="96" y="340"/>
			<point x="122" y="338" type="curve"/>
			<point x="130" y="369"/>
			<point x="160" y="411"/>
			<point x="203" y="411" type="curve" smooth="yes"/>
			<point x="236" y="411"/>
			<point x="251" y="386"/>
			<point x="251" y="363" type="curve" smooth="yes"/>
			<point x="251" y="325"/>
			<point x="230" y="303"/>
			<point x="220" y="294" type="curve"/>
			<point x="257" y="323" type="line"/>
			<point x="246" y="325"/>
			<point x="234" y="326"/>
			<point x="223" y="326" type="curve" smooth="yes"/>
			<point x="127" y="326"/>
			<point x="30" y="271"/>
			<point x="30" y="169" type="curve" smooth="yes"/>
			<point x="30" y="78"/>
			<point x="101" y="-20"/>
		</contour>
		<contour>
			<point x="315" y="119" type="curve"/>
			<point x="348" y="168" type="line"/>
			<point x="496" y="182" type="line"/>
			<point x="486" y="213" type="line"/>
			<point x="436" y="211"/>
			<point x="395" y="210"/>
			<point x="353" y="210" type="curve" smooth="yes"/>
			<point x="311" y="210"/>
			<point x="238" y="211"/>
			<point x="183" y="213" type="curve"/>
			<point x="191" y="180" type="line"/>
			<point x="238" y="180"/>
			<point x="315" y="170"/>
		</contour>
		<contour>
			<point x="225" y="-91" type="line"/>
			<point x="476" y="-91" type="line"/>
			<point x="468" y="-65" type="line"/>
			<point x="417" y="-65"/>
			<point x="362" y="-57"/>
			<point x="360" y="-38" type="curve" smooth="yes"/>
			<point x="348" y="55"/>
			<point x="350" y="131"/>
			<point x="350" y="192" type="curve" smooth="yes"/>
			<point x="350" y="262"/>
			<point x="350" y="365"/>
			<point x="352" y="417" type="curve" smooth="yes"/>
			<point x="356" y="515"/>
			<point x="430" y="558"/>
			<point x="484" y="583" type="curve" smooth="yes"/>
			<point x="517" y="598"/>
			<point x="535" y="556"/>
			<point x="560" y="537" type="curve"/>
			<point x="523" y="588" type="line"/>
			<point x="517" y="589"/>
			<point x="510" y="596"/>
			<point x="503" y="597" type="curve" smooth="yes"/>
			<point x="395" y="607"/>
			<point x="303" y="543"/>
			<point x="303" y="400" type="curve" smooth="yes"/>
			<point x="305" y="239"/>
			<point x="305" y="84"/>
			<point x="305" y="-36" type="curve"/>
			<point x="305" y="-36"/>
			<point x="302" y="-59"/>
			<point x="219" y="-59" type="curve"/>
		</contour>
		<contour>
			<point x="205" y="414" type="curve"/>
			<point x="219" y="453" type="line"/>
			<point x="188" y="458"/>
			<point x="150" y="486"/>
			<point x="150" y="523" type="curve" smooth="yes"/>
			<point x="150" y="583"/>
			<point x="242" y="600"/>
			<point x="335" y="600" type="curve" smooth="yes"/>
			<point x="459" y="600"/>
			<point x="541" y="560"/>
			<point x="541" y="512" type="curve" smooth="yes"/>
			<point x="541" y="487"/>
			<point x="528" y="471"/>
			<point x="504" y="471" type="curve" smooth="yes"/>
			<point x="484" y="471"/>
			<point x="465" y="487"/>
			<point x="465" y="518" type="curve" smooth="yes"/>
			<point x="465" y="545"/>
			<point x="478" y="568"/>
			<point x="500" y="589" type="curve"/>
			<point x="481" y="598" type="line"/>
			<point x="455" y="584"/>
			<point x="418" y="547"/>
			<point x="418" y="499" type="curve" smooth="yes"/>
			<point x="418" y="460"/>
			<point x="451" y="428"/>
			<point x="498" y="428" type="curve" smooth="yes"/>
			<point x="535" y="428"/>
			<point x="574" y="459"/>
			<point x="574" y="521" type="curve" smooth="yes"/>
			<point x="574" y="596"/>
			<point x="502" y="676"/>
			<point x="352" y="676" type="curve" smooth="yes"/>
			<point x="210" y="676"/>
			<point x="118" y="611"/>
			<point x="118" y="516" type="curve" smooth="yes"/>
			<point x="118" y="444"/>
			<point x="173" y="414"/>
		</contour>
	</outline>
</glyph>
<glyph name="sinPfR.virama" format="2">
	<advance width="655"/>
	<outline>
		<contour>
			<point x="338" y="-216" type="curve" smooth="yes"/>
			<point x="607" y="-216"/>
			<point x="613" y="55"/>
			<point x="613" y="193" type="curve"/>
			<point x="590" y="179" type="line"/>
			<point x="579" y="30"/>
			<point x="551" y="-139"/>
			<point x="342" y="-139" type="curve" smooth="yes"/>
			<point x="185" y="-139"/>
			<point x="111" y="-68"/>
			<point x="111" y="-68" type="curve"/>
			<point x="100" y="-71"/>
			<point x="93" y="-77"/>
			<point x="88" y="-84" type="curve"/>
			<point x="92" y="-104"/>
			<point x="161" y="-216"/>
		</contour>
		<component base="sinPf.virama" xOffset="1"/>
	</outline>
</glyph>
<glyph name="sinPfUu" format="2">
	<advance width="655"/>
	<anchor x="551" y="196" name="_si_MaU"/>
	<anchor x="556" y="165" name="rakar"/>
	<outline>
		<contour>
			<point x="315" y="-20" type="curve" smooth="yes"/>
			<point x="498" y="-20"/>
			<point x="615" y="70"/>
			<point x="615" y="193" type="curve" smooth="yes"/>
			<point x="615" y="283"/>
			<point x="504" y="330"/>
			<point x="423" y="330" type="curve" smooth="yes"/>
			<point x="384" y="330"/>
			<point x="387" y="322"/>
			<point x="364" y="311" type="curve"/>
			<point x="433" y="287" type="line"/>
			<point x="425" y="298"/>
			<point x="409" y="314"/>
			<point x="409" y="353" type="curve" smooth="yes"/>
			<point x="409" y="401"/>
			<point x="450" y="416"/>
			<point x="478" y="416" type="curve" smooth="yes"/>
			<point x="521" y="416"/>
			<point x="557" y="392"/>
			<point x="557" y="355" type="curve" smooth="yes"/>
			<point x="557" y="319"/>
			<point x="487" y="306"/>
			<point x="482" y="299" type="curve"/>
			<point x="493" y="283" type="line"/>
			<point x="519" y="293"/>
			<point x="604" y="319"/>
			<point x="604" y="374" type="curve" smooth="yes"/>
			<point x="604" y="417"/>
			<point x="567" y="463"/>
			<point x="500" y="463" type="curve" smooth="yes"/>
			<point x="412" y="463"/>
			<point x="367" y="397"/>
			<point x="367" y="300" type="curve" smooth="yes"/>
			<point x="367" y="288"/>
			<point x="368" y="276"/>
			<point x="369" y="264" type="curve"/>
			<point x="379" y="256" type="line"/>
			<point x="412" y="270"/>
			<point x="446" y="276"/>
			<point x="481" y="276" type="curve" smooth="yes"/>
			<point x="535" y="276"/>
			<point x="578" y="259"/>
			<point x="578" y="204" type="curve" smooth="yes"/>
			<point x="578" y="127"/>
			<point x="484" y="70"/>
			<point x="320" y="70" type="curve" smooth="yes"/>
			<point x="154" y="70"/>
			<point x="64" y="116"/>
			<point x="64" y="179" type="curve" smooth="yes"/>
			<point x="64" y="239"/>
			<point x="121" y="268"/>
			<point x="207" y="268" type="curve" smooth="yes"/>
			<point x="226" y="268"/>
			<point x="247" y="266"/>
			<point x="269" y="263" type="curve"/>
			<point x="280" y="275" type="line"/>
			<point x="284" y="292"/>
			<point x="286" y="312"/>
			<point x="286" y="332" type="curve" smooth="yes"/>
			<point x="286" y="394"/>
			<point x="261" y="461"/>
			<point x="168" y="461" type="curve" smooth="yes"/>
			<point x="107" y="461"/>
			<point x="69" y="427"/>
			<point x="69" y="390" type="curve" smooth="yes"/>
			<point x="69" y="353"/>
			<point x="96" y="340"/>
			<point x="122" y="338" type="curve"/>
			<point x="130" y="369"/>
			<point x="160" y="411"/>
			<point x="203" y="411" type="curve" smooth="yes"/>
			<point x="236" y="411"/>
			<point x="251" y="386"/>
			<point x="251" y="363" type="curve" smooth="yes"/>
			<point x="251" y="325"/>
			<point x="230" y="303"/>
			<point x="220" y="294" type="curve"/>
			<point x="257" y="323" type="line"/>
			<point x="246" y="325"/>
			<point x="234" y="326"/>
			<point x="223" y="326" type="curve" smooth="yes"/>
			<point x="127" y="326"/>
			<point x="30" y="271"/>
			<point x="30" y="169" type="curve" smooth="yes"/>
			<point x="30" y="78"/>
			<point x="101" y="-20"/>
		</contour>
		<component base="sinMatraUu.alt" xOffset="583" yOffset="19"/>
		<contour>
			<point x="315" y="129" type="curve"/>
			<point x="348" y="178" type="line"/>
			<point x="496" y="192" type="line"/>
			<point x="486" y="223" type="line"/>
			<point x="436" y="221"/>
			<point x="395" y="220"/>
			<point x="353" y="220" type="curve" smooth="yes"/>
			<point x="311" y="220"/>
			<point x="238" y="221"/>
			<point x="183" y="223" type="curve"/>
			<point x="191" y="190" type="line"/>
			<point x="238" y="190"/>
			<point x="315" y="180"/>
		</contour>
		<contour>
			<point x="225" y="13" type="line"/>
			<point x="476" y="13" type="line"/>
			<point x="468" y="39" type="line"/>
			<point x="417" y="39"/>
			<point x="362" y="47"/>
			<point x="360" y="66" type="curve" smooth="yes"/>
			<point x="348" y="159"/>
			<point x="350" y="131"/>
			<point x="350" y="192" type="curve" smooth="yes"/>
			<point x="350" y="262"/>
			<point x="349" y="365"/>
			<point x="352" y="417" type="curve" smooth="yes"/>
			<point x="356" y="495"/>
			<point x="408" y="543"/>
			<point x="447" y="543" type="curve" smooth="yes"/>
			<point x="500" y="543"/>
			<point x="542" y="529"/>
			<point x="572" y="483" type="curve"/>
			<point x="588" y="514"/>
			<point x="605" y="530"/>
			<point x="605" y="572" type="curve"/>
			<point x="598" y="575"/>
			<point x="553" y="589"/>
			<point x="503" y="589" type="curve" smooth="yes"/>
			<point x="414" y="589"/>
			<point x="303" y="523"/>
			<point x="303" y="400" type="curve" smooth="yes"/>
			<point x="305" y="239"/>
			<point x="305" y="188"/>
			<point x="305" y="68" type="curve"/>
			<point x="305" y="68"/>
			<point x="302" y="45"/>
			<point x="219" y="45" type="curve"/>
		</contour>
	</outline>
</glyph>
<glyph name="sinRI" format="2">
	<advance width="562"/>
	<outline>
		<contour>
			<point x="221" y="414" type="curve"/>
			<point x="239" y="436" type="line"/>
			<point x="212" y="441"/>
			<point x="178" y="483"/>
			<point x="189" y="547" type="curve" smooth="yes"/>
			<point x="200" y="613"/>
			<point x="246" y="657"/>
			<point x="302" y="647" type="curve" smooth="yes"/>
			<point x="340" y="640"/>
			<point x="354" y="598"/>
			<point x="348" y="565" type="curve" smooth="yes"/>
			<point x="343" y="533"/>
			<point x="331" y="514"/>
			<point x="311" y="498" type="curve"/>
			<point x="344" y="505" type="line"/>
			<point x="355" y="517"/>
			<point x="388" y="562"/>
			<point x="395" y="589" type="curve" smooth="yes"/>
			<point x="402" y="617"/>
			<point x="405" y="666"/>
			<point x="332" y="678" type="curve" smooth="yes"/>
			<point x="253" y="692"/>
			<point x="144" y="639"/>
			<point x="126" y="536" type="curve" smooth="yes"/>
			<point x="113" y="461"/>
			<point x="177" y="421"/>
		</contour>
		<component base="sinRa" xOffset="24"/>
	</outline>
</glyph>
<glyph name="sinSa.reph" format="2">
	<advance width="697"/>
	<outline>
		<contour>
			<point x="464" y="419" type="line"/>
			<point x="500" y="438"/>
			<point x="527" y="474"/>
			<point x="527" y="531" type="curve" smooth="yes"/>
			<point x="527" y="616"/>
			<point x="461" y="677"/>
			<point x="370" y="677" type="curve" smooth="yes"/>
			<point x="274" y="677"/>
			<point x="221" y="608"/>
			<point x="221" y="536" type="curve" smooth="yes"/>
			<point x="221" y="483"/>
			<point x="257" y="440"/>
			<point x="314" y="440" type="curve" smooth="yes"/>
			<point x="362" y="440"/>
			<point x="387" y="472"/>
			<point x="387" y="508" type="curve" smooth="yes"/>
			<point x="387" y="551"/>
			<point x="355" y="583"/>
			<point x="318" y="583" type="curve" smooth="yes"/>
			<point x="274" y="583"/>
			<point x="256" y="544"/>
			<point x="246" y="534" type="curve"/>
			<point x="255" y="521" type="line"/>
			<point x="270" y="530"/>
			<point x="283" y="540"/>
			<point x="315" y="540" type="curve" smooth="yes"/>
			<point x="338" y="540"/>
			<point x="362" y="529"/>
			<point x="362" y="510" type="curve" smooth="yes"/>
			<point x="362" y="486"/>
			<point x="337" y="480"/>
			<point x="318" y="480" type="curve" smooth="yes"/>
			<point x="281" y="480"/>
			<point x="261" y="505"/>
			<point x="261" y="547" type="curve" smooth="yes"/>
			<point x="261" y="596"/>
			<point x="320" y="616"/>
			<point x="370" y="616" type="curve" smooth="yes"/>
			<point x="402" y="616"/>
			<point x="495" y="601"/>
			<point x="495" y="529" type="curve" smooth="yes"/>
			<point x="495" y="489"/>
			<point x="483" y="463"/>
			<point x="446" y="448" type="curve"/>
		</contour>
		<component base="sinSa"/>
	</outline>
</glyph>
<glyph name="sinSsU" format="2">
	<advance width="643"/>
	<outline>
		<contour>
			<point x="225" y="-209" type="curve" smooth="yes"/>
			<point x="583" y="-209" type="line"/>
			<point x="578" y="207" type="line"/>
			<point x="551" y="205" type="line"/>
			<point x="531" y="-141" type="line"/>
			<point x="427" y="-155"/>
			<point x="317" y="-164"/>
			<point x="223" y="-162" type="curve" smooth="yes"/>
			<point x="171" y="-161"/>
			<point x="149" y="-113"/>
			<point x="149" y="-86" type="curve"/>
			<point x="146" y="-85"/>
			<point x="143" y="-85"/>
			<point x="140" y="-85" type="curve" smooth="yes"/>
			<point x="117" y="-85"/>
			<point x="85" y="-99"/>
			<point x="75" y="-109" type="curve"/>
			<point x="83" y="-151"/>
			<point x="123" y="-209"/>
		</contour>
		<component base="sinSsa"/>
	</outline>
</glyph>
<glyph name="sinTha.reph" format="2">
	<advance width="696"/>
	<outline>
		<contour>
			<point x="225" y="289" type="line"/>
			<point x="248" y="297"/>
			<point x="353" y="355"/>
			<point x="353" y="434" type="curve" smooth="yes"/>
			<point x="353" y="519"/>
			<point x="313" y="580"/>
			<point x="222" y="580" type="curve" smooth="yes"/>
			<point x="126" y="580"/>
			<point x="70" y="511"/>
			<point x="70" y="439" type="curve" smooth="yes"/>
			<point x="70" y="386"/>
			<point x="106" y="343"/>
			<point x="163" y="343" type="curve" smooth="yes"/>
			<point x="211" y="343"/>
			<point x="236" y="375"/>
			<point x="236" y="411" type="curve" smooth="yes"/>
			<point x="236" y="454"/>
			<point x="204" y="486"/>
			<point x="167" y="486" type="curve" smooth="yes"/>
			<point x="123" y="486"/>
			<point x="105" y="447"/>
			<point x="95" y="437" type="curve"/>
			<point x="104" y="424" type="line"/>
			<point x="119" y="433"/>
			<point x="132" y="443"/>
			<point x="164" y="443" type="curve" smooth="yes"/>
			<point x="187" y="443"/>
			<point x="211" y="432"/>
			<point x="211" y="413" type="curve" smooth="yes"/>
			<point x="211" y="389"/>
			<point x="186" y="383"/>
			<point x="167" y="383" type="curve" smooth="yes"/>
			<point x="130" y="383"/>
			<point x="110" y="408"/>
			<point x="110" y="450" type="curve" smooth="yes"/>
			<point x="110" y="499"/>
			<point x="172" y="519"/>
			<point x="202" y="519" type="curve" smooth="yes"/>
			<point x="274" y="519"/>
			<point x="308" y="484"/>
			<point x="308" y="432" type="curve" smooth="yes"/>
			<point x="308" y="393"/>
			<point x="291" y="376"/>
			<point x="219" y="333" type="curve"/>
		</contour>
		<component base="sinTha" xOffset="99"/>
	</outline>
</glyph>
<glyph name="sinTtTthIi" format="2">
	<advance width="790"/>
	<outline>
		<contour>
			<point x="388" y="468" type="curve"/>
			<point x="376" y="532" type="line"/>
			<point x="364" y="532"/>
			<point x="274" y="536"/>
			<point x="274" y="606" type="curve" smooth="yes"/>
			<point x="274" y="630"/>
			<point x="302" y="673"/>
			<point x="394" y="680" type="curve"/>
			<point x="503" y="683"/>
			<point x="640" y="669"/>
			<point x="640" y="598" type="curve" smooth="yes"/>
			<point x="640" y="575"/>
			<point x="624" y="560"/>
			<point x="596" y="557" type="curve" smooth="yes"/>
			<point x="574" y="556"/>
			<point x="556" y="568"/>
			<point x="557" y="595" type="curve" smooth="yes"/>
			<point x="557" y="622"/>
			<point x="591" y="637"/>
			<point x="614" y="637" type="curve" smooth="yes"/>
			<point x="640" y="637"/>
			<point x="654" y="625"/>
			<point x="654" y="625" type="curve"/>
			<point x="663" y="650" type="line"/>
			<point x="663" y="650"/>
			<point x="630" y="670"/>
			<point x="590" y="667" type="curve" smooth="yes"/>
			<point x="566" y="664"/>
			<point x="511" y="643"/>
			<point x="508" y="593" type="curve" smooth="yes"/>
			<point x="505" y="548"/>
			<point x="530" y="512"/>
			<point x="584" y="512" type="curve" smooth="yes"/>
			<point x="647" y="512"/>
			<point x="694" y="559"/>
			<point x="694" y="613" type="curve" smooth="yes"/>
			<point x="694" y="704"/>
			<point x="565" y="748"/>
			<point x="466" y="748" type="curve" smooth="yes"/>
			<point x="321" y="748"/>
			<point x="245" y="689"/>
			<point x="245" y="600" type="curve" smooth="yes"/>
			<point x="245" y="540"/>
			<point x="305" y="476"/>
		</contour>
		<component base="sinTtTtha"/>
	</outline>
</glyph>
<glyph name="sinTtTtha" format="2">
	<advance width="789"/>
	<outline>
		<contour>
			<point x="557" y="-18" type="curve" smooth="yes"/>
			<point x="678" y="-18"/>
			<point x="739" y="117"/>
			<point x="739" y="253" type="curve" smooth="yes"/>
			<point x="739" y="511"/>
			<point x="518" y="631"/>
			<point x="359" y="631" type="curve"/>
			<point x="348" y="562" type="line"/>
			<point x="509" y="562"/>
			<point x="695" y="439"/>
			<point x="695" y="258" type="curve" smooth="yes"/>
			<point x="695" y="158"/>
			<point x="638" y="79"/>
			<point x="557" y="79" type="curve" smooth="yes"/>
			<point x="508" y="79"/>
			<point x="467" y="107"/>
			<point x="467" y="160" type="curve" smooth="yes"/>
			<point x="467" y="165"/>
			<point x="467" y="170"/>
			<point x="468" y="176" type="curve"/>
			<point x="448" y="171" type="line"/>
			<point x="431" y="113"/>
			<point x="388" y="77"/>
			<point x="326" y="77" type="curve" smooth="yes"/>
			<point x="269" y="77"/>
			<point x="222" y="107"/>
			<point x="222" y="168" type="curve" smooth="yes"/>
			<point x="222" y="242"/>
			<point x="294" y="296"/>
			<point x="379" y="296" type="curve" smooth="yes"/>
			<point x="400" y="296"/>
			<point x="421" y="294"/>
			<point x="443" y="290" type="curve"/>
			<point x="453" y="302" type="line"/>
			<point x="450" y="326"/>
			<point x="436" y="342"/>
			<point x="426" y="352" type="curve"/>
			<point x="330" y="356"/>
			<point x="183" y="296"/>
			<point x="183" y="150" type="curve" smooth="yes"/>
			<point x="183" y="63"/>
			<point x="235" y="-15"/>
			<point x="321" y="-15" type="curve" smooth="yes"/>
			<point x="402" y="-15"/>
			<point x="451" y="54"/>
			<point x="456" y="102" type="curve"/>
			<point x="457" y="102"/>
			<point x="438" y="106"/>
			<point x="439" y="108" type="curve"/>
			<point x="440" y="69"/>
			<point x="459" y="-18"/>
		</contour>
		<contour>
			<point x="130" y="9" type="curve"/>
			<point x="149" y="9"/>
			<point x="161" y="13"/>
			<point x="165" y="16" type="curve"/>
			<point x="142" y="43"/>
			<point x="127" y="94"/>
			<point x="127" y="149" type="curve" smooth="yes"/>
			<point x="127" y="258"/>
			<point x="206" y="332"/>
			<point x="306" y="332" type="curve" smooth="yes"/>
			<point x="321" y="332"/>
			<point x="326" y="331"/>
			<point x="342" y="328" type="curve"/>
			<point x="427" y="344" type="line"/>
			<point x="425" y="353" type="line"/>
			<point x="423" y="353"/>
			<point x="390" y="371"/>
			<point x="322" y="371" type="curve" smooth="yes"/>
			<point x="184" y="371"/>
			<point x="69" y="299"/>
			<point x="69" y="165" type="curve" smooth="yes"/>
			<point x="69" y="97"/>
			<point x="100" y="41"/>
		</contour>
		<contour>
			<point x="476" y="413" type="curve" smooth="yes"/>
			<point x="534" y="413"/>
			<point x="598" y="430"/>
			<point x="622" y="448" type="curve"/>
			<point x="607" y="473" type="line"/>
			<point x="587" y="465"/>
			<point x="559" y="458"/>
			<point x="519" y="458" type="curve" smooth="yes"/>
			<point x="394" y="458"/>
			<point x="368" y="520"/>
			<point x="359" y="631" type="curve"/>
			<point x="329" y="614" type="line"/>
			<point x="326" y="594"/>
			<point x="324" y="575"/>
			<point x="324" y="557" type="curve" smooth="yes"/>
			<point x="324" y="473"/>
			<point x="367" y="413"/>
		</contour>
	</outline>
</glyph>
<glyph name="sinTthIi" format="2">
	<advance width="637"/>
	<outline>
		<contour>
			<point x="208" y="506" type="curve"/>
			<point x="196" y="567" type="line"/>
			<point x="134" y="567"/>
			<point x="94" y="594"/>
			<point x="94" y="635" type="curve" smooth="yes"/>
			<point x="94" y="668"/>
			<point x="112" y="716"/>
			<point x="235" y="716" type="curve" smooth="yes"/>
			<point x="313" y="716"/>
			<point x="450" y="707"/>
			<point x="450" y="636" type="curve" smooth="yes"/>
			<point x="450" y="613"/>
			<point x="434" y="593"/>
			<point x="405" y="593" type="curve" smooth="yes"/>
			<point x="384" y="593"/>
			<point x="365" y="606"/>
			<point x="366" y="630" type="curve" smooth="yes"/>
			<point x="367" y="666"/>
			<point x="401" y="675"/>
			<point x="424" y="675" type="curve" smooth="yes"/>
			<point x="450" y="675"/>
			<point x="464" y="663"/>
			<point x="464" y="663" type="curve"/>
			<point x="473" y="688" type="line"/>
			<point x="473" y="688"/>
			<point x="440" y="709"/>
			<point x="400" y="705" type="curve" smooth="yes"/>
			<point x="366" y="702"/>
			<point x="320" y="681"/>
			<point x="317" y="627" type="curve" smooth="yes"/>
			<point x="314" y="586"/>
			<point x="340" y="550"/>
			<point x="394" y="550" type="curve" smooth="yes"/>
			<point x="458" y="550"/>
			<point x="504" y="596"/>
			<point x="504" y="652" type="curve" smooth="yes"/>
			<point x="504" y="742"/>
			<point x="375" y="786"/>
			<point x="286" y="786" type="curve" smooth="yes"/>
			<point x="131" y="786"/>
			<point x="56" y="727"/>
			<point x="56" y="628" type="curve" smooth="yes"/>
			<point x="56" y="578"/>
			<point x="105" y="514"/>
		</contour>
		<component base="sinTtha"/>
	</outline>
</glyph>
<glyph name="sinV.virama" format="2">
	<advance width="601"/>
	<outline>
		<contour>
			<point x="548" y="330" type="line"/>
			<point x="548" y="473"/>
			<point x="544" y="739"/>
			<point x="273" y="739" type="curve" smooth="yes"/>
			<point x="201" y="739"/>
			<point x="129" y="703"/>
			<point x="129" y="703" type="curve"/>
			<point x="116" y="679"/>
			<point x="112" y="653"/>
			<point x="111" y="643" type="curve"/>
			<point x="133" y="658"/>
			<point x="163" y="666"/>
			<point x="190" y="671" type="curve"/>
			<point x="218" y="701" type="line"/>
			<point x="184" y="691"/>
			<point x="143" y="629"/>
			<point x="143" y="577" type="curve"/>
			<point x="171" y="562" type="line"/>
			<point x="171" y="616"/>
			<point x="232" y="684"/>
			<point x="266" y="689" type="curve"/>
			<point x="195" y="672" type="line"/>
			<point x="195" y="672"/>
			<point x="209" y="681"/>
			<point x="271" y="681" type="curve" smooth="yes"/>
			<point x="523" y="681"/>
			<point x="512" y="440"/>
			<point x="511" y="392" type="curve"/>
		</contour>
		<component base="sinVa"/>
	</outline>
</glyph>
<glyph name="sinYUu.post" format="2">
	<advance width="584"/>
	<outline>
		<contour>
			<point x="493" y="-225" type="curve"/>
			<point x="515" y="-211" type="line"/>
			<point x="519" y="175" type="line"/>
			<point x="488" y="154" type="line"/>
			<point x="467" y="-175" type="line"/>
			<point x="492" y="-183" type="line"/>
			<point x="475" y="-152"/>
			<point x="417" y="-110"/>
			<point x="350" y="-110" type="curve" smooth="yes"/>
			<point x="273" y="-110"/>
			<point x="242" y="-181"/>
			<point x="183" y="-181" type="curve" smooth="yes"/>
			<point x="151" y="-181"/>
			<point x="118" y="-150"/>
			<point x="118" y="-103" type="curve"/>
			<point x="110" y="-100"/>
			<point x="101" y="-99"/>
			<point x="91" y="-99" type="curve" smooth="yes"/>
			<point x="75" y="-99"/>
			<point x="58" y="-103"/>
			<point x="46" y="-109" type="curve"/>
			<point x="46" y="-150"/>
			<point x="78" y="-220"/>
			<point x="173" y="-220" type="curve" smooth="yes"/>
			<point x="258" y="-220"/>
			<point x="272" y="-179"/>
			<point x="343" y="-179" type="curve" smooth="yes"/>
			<point x="399" y="-179"/>
			<point x="462" y="-202"/>
		</contour>
		<component base="sinYansaya"/>
	</outline>
</glyph>
<glyph name="sinYansaya.MatraI" format="2">
	<advance width="584"/>
	<outline>
		<contour>
			<point x="212" y="398" type="curve"/>
			<point x="195" y="437" type="line"/>
			<point x="167" y="451"/>
			<point x="146" y="474"/>
			<point x="146" y="515" type="curve" smooth="yes"/>
			<point x="146" y="554"/>
			<point x="165" y="604"/>
			<point x="281" y="604" type="curve" smooth="yes"/>
			<point x="378" y="604"/>
			<point x="447" y="579"/>
			<point x="447" y="526" type="curve" smooth="yes"/>
			<point x="447" y="478"/>
			<point x="374" y="459"/>
			<point x="374" y="459" type="curve"/>
			<point x="392" y="419" type="line"/>
			<point x="435" y="429"/>
			<point x="481" y="473"/>
			<point x="481" y="543" type="curve" smooth="yes"/>
			<point x="481" y="598"/>
			<point x="441" y="671"/>
			<point x="312" y="671" type="curve" smooth="yes"/>
			<point x="194" y="671"/>
			<point x="119" y="601"/>
			<point x="117" y="513" type="curve" smooth="yes"/>
			<point x="116" y="471"/>
			<point x="117" y="409"/>
		</contour>
		<component base="sinYansaya"/>
	</outline>
</glyph>
